<svg xmlns="http://www.w3.org/2000/svg" viewBox="0 0 484.13 148.07"><defs><style>.cls-1{fill:#9e9e9f;}</style></defs><g id="Layer_2" data-name="Layer 2"><g id="Layer_1-2" data-name="Layer 1"><path class="cls-1" d="M13.65,91.24H28.93a1.35,1.35,0,0,0,0-2.69H13.65a1.35,1.35,0,0,0,0,2.69Z"/><path class="cls-1" d="M13.65,83.32H28.93a1.35,1.35,0,0,0,0-2.69H13.65a1.35,1.35,0,0,0,0,2.69Z"/><path class="cls-1" d="M13.65,99.16H28.93a1.35,1.35,0,0,0,0-2.7H13.65a1.35,1.35,0,0,0,0,2.7Z"/><path class="cls-1" d="M13.65,107.07H28.93a1.35,1.35,0,0,0,0-2.69H13.65a1.35,1.35,0,0,0,0,2.69Z"/><path class="cls-1" d="M28.93,18.44H13.65a1.35,1.35,0,0,0,0,2.7H28.93a1.35,1.35,0,0,0,0-2.7Z"/><path class="cls-1" d="M129.13,7.09H5.71A4.41,4.41,0,0,0,1.1,11.25V52.08a4.41,4.41,0,0,0,4.61,4.16h7.61v13H5.71A4.41,4.41,0,0,0,1.1,73.44v40.82a4.4,4.4,0,0,0,4.61,4.16H66.08v9l-8,8H2.45a1.35,1.35,0,1,0,0,2.69h55.6l8.42,8.43a1.34,1.34,0,0,0,1,.39,1.31,1.31,0,0,0,1-.4l8.42-8.42h55.6a1.35,1.35,0,1,0,0-2.69H76.79l-8-8v-9h60.36a4.4,4.4,0,0,0,4.61-4.16V73.44a4.41,4.41,0,0,0-4.61-4.16h-7.61v-13h7.61a4.41,4.41,0,0,0,4.61-4.16V11.25A4.41,4.41,0,0,0,129.13,7.09ZM74.33,136.81l-6.91,6.91-6.91-6.91,6.91-6.91ZM131,90.39h-56V81.65h56ZM129.13,72A1.75,1.75,0,0,1,131,73.44V79H73.73a1.35,1.35,0,0,0-1.34,1.35V91.73a1.35,1.35,0,0,0,1.34,1.35H131v9.09H73.73a1.35,1.35,0,0,0,0,2.7H131v9.39a1.75,1.75,0,0,1-1.91,1.47H5.71a1.75,1.75,0,0,1-1.91-1.47V73.44A1.75,1.75,0,0,1,5.71,72ZM16,69.28v-13H56.5v13Zm43.18,0v-13H75.65v13Zm19.14,0v-13h40.48v13ZM131,28.2h-56V19.46h56Zm0-11.43H73.73a1.34,1.34,0,0,0-1.34,1.34V29.55a1.34,1.34,0,0,0,1.34,1.34H131V40H73.73a1.35,1.35,0,0,0,0,2.69H131v9.6a1.83,1.83,0,0,1-1.9,1.26H5.71A1.8,1.8,0,0,1,3.8,52.08V11.25A1.76,1.76,0,0,1,5.71,9.78H129.13A1.76,1.76,0,0,1,131,11.25Z"/><path class="cls-1" d="M28.93,34.28H13.65a1.35,1.35,0,0,0,0,2.69H28.93a1.35,1.35,0,0,0,0-2.69Z"/><path class="cls-1" d="M28.93,26.36H13.65a1.35,1.35,0,0,0,0,2.69H28.93a1.35,1.35,0,0,0,0-2.69Z"/><path class="cls-1" d="M28.93,42.19H13.65a1.35,1.35,0,0,0,0,2.69H28.93a1.35,1.35,0,0,0,0-2.69Z"/><path class="cls-1" d="M129.13,8.68H5.71a2.83,2.83,0,0,0-3,2.57v41l0,.18a2.91,2.91,0,0,0,3,2.2H129.13a2.93,2.93,0,0,0,3-2.19l0-.19V41.57H73.74a.24.24,0,1,1,0-.48h58.41V29.79H73.74a.25.25,0,0,1-.25-.24V18.11a.25.25,0,0,1,.25-.24h58.41V11.25A2.82,2.82,0,0,0,129.13,8.68Zm.81,7H73.74a2.46,2.46,0,0,0-2.46,2.45V29.55A2.46,2.46,0,0,0,73.74,32h56.2v6.88H73.74a2.45,2.45,0,1,0,0,4.9h56.2v8.3a.88.88,0,0,1-.81.36H5.71a.91.91,0,0,1-.81-.36V11.25a.87.87,0,0,1,.81-.36H129.13a.87.87,0,0,1,.81.36Z"/><path class="cls-1" d="M28.93,41.09H13.65a2.45,2.45,0,1,0,0,4.9H28.93a2.45,2.45,0,1,0,0-4.9Zm0,2.69H13.65a.24.24,0,0,1-.24-.24.24.24,0,0,1,.24-.24H28.93a.24.24,0,0,1,.24.24A.24.24,0,0,1,28.93,43.78Z"/><path class="cls-1" d="M28.93,103.27H13.65a2.46,2.46,0,0,0,0,4.91H28.93a2.46,2.46,0,0,0,0-4.91Zm0,2.7H13.65a.25.25,0,0,1,0-.49H28.93a.25.25,0,0,1,0,.49Z"/><path class="cls-1" d="M28.93,95.36H13.65a2.45,2.45,0,1,0,0,4.9H28.93a2.45,2.45,0,0,0,0-4.9Zm0,2.69H13.65a.24.24,0,0,1,0-.48H28.93a.24.24,0,0,1,0,.48Z"/><path class="cls-1" d="M129.13,6H5.71A5.5,5.5,0,0,0,0,11.25V52.08a5.5,5.5,0,0,0,5.71,5.26h6.51V68.17H5.71A5.51,5.51,0,0,0,0,73.44v40.82a5.51,5.51,0,0,0,5.71,5.27H65V127l-7.38,7.38H2.45a2.45,2.45,0,1,0,0,4.9H57.59l8.1,8.1a2.46,2.46,0,0,0,3.46,0l8.1-8.1h55.14a2.45,2.45,0,1,0,0-4.9H77.25L69.87,127v-7.45h59.26a5.51,5.51,0,0,0,5.71-5.27V73.44a5.51,5.51,0,0,0-5.71-5.27h-6.51V57.34h6.51a5.5,5.5,0,0,0,5.71-5.26V11.25A5.5,5.5,0,0,0,129.13,6Zm3.5,12.12v34a3.3,3.3,0,0,1-3.5,3.05h-8.72V70.38h8.72a3.3,3.3,0,0,1,3.5,3.06v40.82a3.3,3.3,0,0,1-3.5,3.06H67.66v10.57l.65.65,7.38,7.38.65.65h56a.23.23,0,0,1,.24.24.24.24,0,0,1-.24.24h-56l-.65.65-8.1,8.09a.21.21,0,0,1-.17.07.23.23,0,0,1-.17-.07l-8.1-8.09-.64-.65H2.45a.24.24,0,0,1-.24-.24.24.24,0,0,1,.24-.24H58.51l.64-.65,7.38-7.38.65-.65V117.32H5.71a3.3,3.3,0,0,1-3.5-3.06V73.44a3.3,3.3,0,0,1,3.5-3.06h8.72V55.13H5.71a3.3,3.3,0,0,1-3.5-3.05V11.25A3.3,3.3,0,0,1,5.71,8.2H129.13a3.3,3.3,0,0,1,3.5,3.05Z"/><path class="cls-1" d="M65.86,129.9l-5.35,5.34L59,136.81l1.56,1.56,5.35,5.35,1.56,1.56L69,143.72l5.35-5.35,1.57-1.56-1.57-1.57L69,129.9l-1.56-1.57Zm6.91,6.91-5.35,5.35-5.35-5.35,5.35-5.35Z"/><path class="cls-1" d="M76.19,80.54H74V91.49h58.17V80.54h-56Zm53.75,8.74H76.19V82.75h53.75Z"/><path class="cls-1" d="M76.19,18.36H74V29.3h58.17V18.36h-56Zm53.75,8.74H76.19V20.56h53.75Z"/><path class="cls-1" d="M28.93,25.25H13.65a2.46,2.46,0,0,0,0,4.91H28.93a2.46,2.46,0,0,0,0-4.91Zm0,2.7H13.65a.25.25,0,0,1,0-.49H28.93a.25.25,0,0,1,0,.49Z"/><path class="cls-1" d="M119.93,70.38V55.13H77.24V70.38h42.69Zm-40.48-13h38.27V68.17H79.45Z"/><path class="cls-1" d="M77,70.87H5.71a2.83,2.83,0,0,0-3,2.57v40.82a2.83,2.83,0,0,0,3,2.58H129.13a2.83,2.83,0,0,0,3-2.58v-10.5H73.74a.24.24,0,1,1,0-.48h58.41V92H73.74a.25.25,0,0,1-.25-.25V80.3a.25.25,0,0,1,.25-.24h58.41V73.44a2.82,2.82,0,0,0-3-2.57H77Zm53,2.57v4.41H73.74a2.46,2.46,0,0,0-2.46,2.45V91.73a2.46,2.46,0,0,0,2.46,2.46h56.2v6.88H73.74a2.45,2.45,0,1,0,0,4.9h56.2v8.29a.87.87,0,0,1-.81.37H5.71a.87.87,0,0,1-.81-.37V73.44a.87.87,0,0,1,.81-.36H129.13A.87.87,0,0,1,129.94,73.44Z"/><path class="cls-1" d="M57.61,70.38V55.13H14.91V70.38h42.7Zm-40.49-13H55.4V68.17H17.12Z"/><path class="cls-1" d="M76.75,70.38V55.13H58.09V70.38H76.75Zm-16.45-13H74.54V68.17H60.3Z"/><path class="cls-1" d="M28.93,17.34H13.65a2.45,2.45,0,0,0,0,4.9H28.93a2.45,2.45,0,0,0,0-4.9Zm0,2.69H13.65a.24.24,0,1,1,0-.48H28.93a.24.24,0,1,1,0,.48Z"/><path class="cls-1" d="M28.93,33.17H13.65a2.45,2.45,0,1,0,0,4.9H28.93a2.45,2.45,0,1,0,0-4.9Zm0,2.69H13.65a.24.24,0,0,1-.24-.24.24.24,0,0,1,.24-.24H28.93a.24.24,0,0,1,.24.24A.24.24,0,0,1,28.93,35.86Z"/><path class="cls-1" d="M28.93,87.44H13.65a2.46,2.46,0,0,0,0,4.91H28.93a2.46,2.46,0,0,0,0-4.91Zm0,2.7H13.65a.25.25,0,0,1,0-.49H28.93a.25.25,0,0,1,0,.49Z"/><path class="cls-1" d="M28.93,79.53H13.65a2.45,2.45,0,0,0,0,4.9H28.93a2.45,2.45,0,0,0,0-4.9Zm0,2.69H13.65a.24.24,0,0,1-.24-.24.24.24,0,0,1,.24-.24H28.93a.24.24,0,0,1,.24.24A.24.24,0,0,1,28.93,82.22Z"/><path class="cls-1" d="M28.93,103.27H13.65a2.46,2.46,0,0,0,0,4.91H28.93a2.46,2.46,0,0,0,0-4.91Zm0,3.8H13.65a1.35,1.35,0,0,1,0-2.69H28.93a1.35,1.35,0,0,1,0,2.69Z"/><path class="cls-1" d="M129.13,6H5.71A5.5,5.5,0,0,0,0,11.25V52.08a5.5,5.5,0,0,0,5.71,5.26h6.51V68.17H5.71A5.51,5.51,0,0,0,0,73.44v40.82a5.51,5.51,0,0,0,5.71,5.27H65V127l-7.38,7.38H2.45a2.45,2.45,0,1,0,0,4.9H57.59l8.1,8.1a2.46,2.46,0,0,0,3.46,0l8.1-8.1h55.14a2.45,2.45,0,1,0,0-4.9H77.25L69.87,127v-7.45h59.26a5.51,5.51,0,0,0,5.71-5.27V73.44a5.51,5.51,0,0,0-5.71-5.27h-6.51V57.34h6.51a5.5,5.5,0,0,0,5.71-5.26V11.25A5.5,5.5,0,0,0,129.13,6Zm4.61,12.12v34a4.41,4.41,0,0,1-4.61,4.16h-7.61v13h7.61a4.4,4.4,0,0,1,4.61,4.16v40.82a4.4,4.4,0,0,1-4.61,4.16H68.77v9l.32.33,7.38,7.38.32.32h55.6a1.35,1.35,0,1,1,0,2.69H76.79l-.32.33-8.1,8.09a1.31,1.31,0,0,1-1,.4,1.34,1.34,0,0,1-1-.39l-8.1-8.1-.32-.33H2.45a1.35,1.35,0,1,1,0-2.69h55.6l.32-.32,7.38-7.38.32-.33v-9H5.71a4.4,4.4,0,0,1-4.61-4.16V73.44a4.4,4.4,0,0,1,4.61-4.16h7.61v-13H5.71A4.41,4.41,0,0,1,1.1,52.08V11.25A4.41,4.41,0,0,1,5.71,7.09H129.13a4.41,4.41,0,0,1,4.61,4.16Z"/><path class="cls-1" d="M28.93,95.36H13.65a2.45,2.45,0,1,0,0,4.9H28.93a2.45,2.45,0,0,0,0-4.9Zm0,3.8H13.65a1.35,1.35,0,0,1,0-2.7H28.93a1.35,1.35,0,0,1,0,2.7Z"/><path class="cls-1" d="M76.19,19.46H75.08V28.2h56V19.46H76.19Zm53.75,7.64H76.19V20.56h53.75Z"/><path class="cls-1" d="M28.93,41.09H13.65a2.45,2.45,0,1,0,0,4.9H28.93a2.45,2.45,0,1,0,0-4.9Zm0,3.79H13.65a1.35,1.35,0,0,1,0-2.69H28.93a1.35,1.35,0,0,1,0,2.69Z"/><path class="cls-1" d="M76.19,81.65H75.08v8.74h56V81.65H76.19Zm53.75,7.63H76.19V82.75h53.75Z"/><path class="cls-1" d="M67.42,129.9l-.78.78L61.29,136l-.78.78.78.78,5.35,5.35.78.78.78-.78,5.35-5.35.78-.78-.78-.78-5.35-5.35Zm0,12.26-5.35-5.35,5.35-5.35,5.35,5.35Z"/><path class="cls-1" d="M129.13,9.78H5.71A1.76,1.76,0,0,0,3.8,11.25v41a1.85,1.85,0,0,0,1.9,1.28H129.13a1.86,1.86,0,0,0,1.9-1.27V42.68H73.74a1.35,1.35,0,1,1,0-2.7H131V30.89H73.74a1.34,1.34,0,0,1-1.35-1.34V18.11a1.34,1.34,0,0,1,1.35-1.34H131V11.25A1.76,1.76,0,0,0,129.13,9.78Zm.81,5.88H73.74a2.46,2.46,0,0,0-2.46,2.45V29.55A2.46,2.46,0,0,0,73.74,32h56.2v6.88H73.74a2.45,2.45,0,1,0,0,4.9h56.2v8.3a.88.88,0,0,1-.81.36H5.71a.91.91,0,0,1-.81-.36V11.25a.87.87,0,0,1,.81-.36H129.13a.87.87,0,0,1,.81.36Z"/><path class="cls-1" d="M77,72H5.71A1.75,1.75,0,0,0,3.8,73.44v40.82a1.75,1.75,0,0,0,1.91,1.47H129.13a1.75,1.75,0,0,0,1.91-1.47v-9.39H73.74a1.35,1.35,0,1,1,0-2.7H131V93.08H73.74a1.34,1.34,0,0,1-1.35-1.35V80.3A1.35,1.35,0,0,1,73.74,79H131V73.44A1.75,1.75,0,0,0,129.13,72H77Zm53,1.47v4.41H73.74a2.46,2.46,0,0,0-2.46,2.45V91.73a2.46,2.46,0,0,0,2.46,2.46h56.2v6.88H73.74a2.45,2.45,0,1,0,0,4.9h56.2v8.29a.87.87,0,0,1-.81.37H5.71a.87.87,0,0,1-.81-.37V73.44a.87.87,0,0,1,.81-.36H129.13A.87.87,0,0,1,129.94,73.44Z"/><path class="cls-1" d="M75.65,69.28v-13H59.2v13H75.65ZM60.3,57.34H74.54V68.17H60.3Z"/><path class="cls-1" d="M28.93,33.17H13.65a2.45,2.45,0,1,0,0,4.9H28.93a2.45,2.45,0,1,0,0-4.9Zm0,3.8H13.65a1.35,1.35,0,0,1,0-2.69H28.93a1.35,1.35,0,0,1,0,2.69Z"/><path class="cls-1" d="M56.5,69.28v-13H16v13H56.5ZM17.12,57.34H55.4V68.17H17.12Z"/><path class="cls-1" d="M28.93,25.25H13.65a2.46,2.46,0,0,0,0,4.91H28.93a2.46,2.46,0,0,0,0-4.91Zm0,3.8H13.65a1.35,1.35,0,0,1,0-2.69H28.93a1.35,1.35,0,0,1,0,2.69Z"/><path class="cls-1" d="M118.82,69.28v-13H78.34v13h40.48ZM79.45,57.34h38.27V68.17H79.45Z"/><path class="cls-1" d="M28.93,87.44H13.65a2.46,2.46,0,0,0,0,4.91H28.93a2.46,2.46,0,0,0,0-4.91Zm0,3.8H13.65a1.35,1.35,0,0,1,0-2.69H28.93a1.35,1.35,0,0,1,0,2.69Z"/><path class="cls-1" d="M28.93,79.53H13.65a2.45,2.45,0,0,0,0,4.9H28.93a2.45,2.45,0,0,0,0-4.9Zm0,3.79H13.65a1.35,1.35,0,0,1,0-2.69H28.93a1.35,1.35,0,0,1,0,2.69Z"/><path class="cls-1" d="M28.93,17.34H13.65a2.45,2.45,0,0,0,0,4.9H28.93a2.45,2.45,0,0,0,0-4.9Zm0,3.8H13.65a1.35,1.35,0,0,1,0-2.7H28.93a1.35,1.35,0,0,1,0,2.7Z"/><path class="cls-1" d="M214.27,38.25c3.85.34,7.95.61,12.17.81a1.36,1.36,0,0,0,1.34-1.3,1.33,1.33,0,0,0-.35-1,1.38,1.38,0,0,0-1-.45q-6.15-.28-12.11-.81A1.34,1.34,0,0,0,213,36.76,1.37,1.37,0,0,0,214.27,38.25Z"/><path class="cls-1" d="M189.72,34.48c3.18.81,6.92,1.54,11.12,2.18l.22,0a1.37,1.37,0,0,0,1.34-1.16,1.33,1.33,0,0,0-.25-1,1.29,1.29,0,0,0-.89-.54c-4.11-.63-7.77-1.35-10.86-2.14a1.37,1.37,0,0,0-.34,0,1.38,1.38,0,0,0-1.18,2.07A1.4,1.4,0,0,0,189.72,34.48Z"/><path class="cls-1" d="M189.72,78.92c3.18.81,6.92,1.55,11.12,2.19h.22A1.37,1.37,0,0,0,202.4,80a1.37,1.37,0,0,0-1.14-1.56c-4.11-.63-7.76-1.34-10.86-2.14a2.09,2.09,0,0,0-.35,0,1.37,1.37,0,0,0-.33,2.7Z"/><path class="cls-1" d="M243.05,1.33c-26.54,0-66,3.44-66,12.92v23.1c0,2.26,2.37,4.34,7,6.17l.72.28v8.42l-.73.27c-4.74,1.78-7,3.8-7,6.2v23.1c0,2.27,2.37,4.34,7,6.17l.72.28v8.38l-.73.27c-4.74,1.78-7,3.8-7,6.2v23.1c0,9.48,39.49,12.92,66,12.92,1.23,0,12.36,0,25.26-1l.41,0c5.22-.4,10.21-.94,15-1.63l.59-.08.59-.05.16-.07.14,0c20.76-3.08,23.86-7.67,23.86-10.13v-23.1c0-2.4-2.31-4.42-7-6.2l-.73-.27V88.24L302,88c4.68-1.83,7.06-3.9,7.06-6.17V58.69c0-2.4-2.31-4.42-7-6.2l-.73-.27V43.8l.71-.28c4.68-1.83,7.06-3.91,7.06-6.17V14.25C309.09,4.77,269.6,1.33,243.05,1.33ZM179.83,37.74l-.07-.19V18.36l1.64.86,1.16.56c.42.19.86.37,1.32.55l.45.19q.94.36,2,.69l.33.11c.59.18,1.2.37,1.83.54l2.33.61.82.19,2.5.54c.7.15,2.59.5,2.59.5l2.73.46,2.77.41,2.87.38,3,.35,3.3.34,3.35.31,2.7.21,2.9.2,6,.35,4.85.2,6.58.19,4.9.07,7.67-.11,6.46-.22,5.57-.27,4.89-.31V46.68l-1.05.08c-1.82.12-3.66.23-5.55.33l-1,0c-1.43.07-2.89.12-4.36.18l-4.14.11-2,0c-2,0-4,.06-6.06.06s-4.07,0-6.05-.06l-2.05,0-4.08-.11c-1.51,0-3-.12-4.48-.19l-.89,0c-8-.4-15.43-1.07-22.06-2l-.35-.05L200,44.59l-.34-.06a89.82,89.82,0,0,1-13-3h-.23l-.17,0C181.13,39.84,180.13,38.56,179.83,37.74ZM271.27,49.1l3.36-.31c1.57-.15,3.09-.32,4.58-.5l1.54-.19,4-.54h.21l.16-.07.45-.07a105.47,105.47,0,0,0,11.63-2.34l1.42-.38v7.83l-.13.24a2.91,2.91,0,0,1-.72.88c-1.7,1.44-5.79,2.64-8.94,3.41-.88.21-1.82.42-2.93.65-.95.2-2,.39-3,.58l-.28.05c-1,.18-2.08.34-3.36.54l-.33,0c-1.05.16-2.17.3-3.3.45l-.76.1-3.37.38-1.05.11c-1,.1-2,.19-3,.27l-1.75.16-3.31.22-1.8.12c-1.1.07-2.25.12-3.4.17L255,61l-4.62.13-1.18,0q-3,.06-6.16.06c-2.1,0-4.16,0-6.15-.06l-1.2,0L231.1,61l-5.47-.26-1.83-.13s-2.39-.15-3.28-.22l-1.74-.16-3-.27-1.91-.21c-.84-.09-1.69-.18-2.49-.28L207.29,59l-3.67-.59-3.3-.62-2.92-.65-2.54-.66-1.08-.33-1.08-.34-.95-.35-.84-.32-.65-.31a8.12,8.12,0,0,1-.78-.38l-.31-.19a6.1,6.1,0,0,1-.9-.67,2.54,2.54,0,0,1-.62-.76l-.12-.24V44.71l1.41.38a106,106,0,0,0,11.63,2.34,290,290,0,0,0,40.86,2.83h3.25q12.39-.06,24-.94ZM270,46.48V26.13l1-.09c4-.34,7.79-.76,11.31-1.24l1.27-.17V45l-1,.13c-3.56.5-7.4.93-11.43,1.28Zm-90.16,35.7-.07-.19V62.8l1.64.86,1.16.56c.42.19.86.37,1.32.56l.44.18c.64.24,1.3.47,2,.7l.33.1q.88.28,1.83.54l2.33.61.83.2,1.7.37,3.38.66c.89.17,1.81.32,2.73.46l2.78.42,2.85.37,3,.35,3.37.35,3.22.29,2.8.22,2.83.2,6.09.35,4.86.21,6.57.19,4.91.06,7.45-.1,7.15-.24,5.06-.25,3.74-.23,1.18-.06v20.4l-1.05.07c-1.82.12-3.66.24-5.55.33l-1,0c-1.43.07-2.89.13-4.36.18s-2.73.09-4.14.12l-2,0c-2,0-4,.06-6.06.06S239,92,237,91.91l-2.05,0c-1.39,0-2.74-.07-4.08-.12-1.51-.05-3-.11-4.48-.18l-.89,0c-8-.41-15.44-1.08-22-2l-.4,0c-1-.15-2-.29-2.95-.45l-.46-.07a89.54,89.54,0,0,1-13-3h-.23L186.3,86C181.13,84.29,180.13,83,179.83,82.18Zm94.74,11.06q2.4-.24,4.68-.51l3.34-.43,3-.43a103.64,103.64,0,0,0,11.59-2.34l1.42-.38V97l-.13.24a3.12,3.12,0,0,1-.73.88,6.88,6.88,0,0,1-1.06.71,13.23,13.23,0,0,1-1.4.68c-.5.22-1.08.43-1.78.68s-1.34.44-2.16.67-1.57.43-2.54.66-1.76.41-2.93.66c-.92.19-1.91.37-2.93.55l-.38.07c-1,.18-2,.34-3.09.5l-.6.1c-1,.15-2.11.29-3.21.43l-.84.12c-1.06.13-2.19.24-3.31.36l-1.11.13-3.47.3-1.3.12c-1.19.1-2.45.18-3.71.25l-1.42.1-4,.19-1.46.07c-1.55.06-3.15.1-4.78.14l-1,0q-3,0-6.16.05c-2.1,0-4.16,0-6.15-.05l-1,0c-1.62,0-3.23-.08-4.77-.14l-2-.09-3.42-.17-5.12-.35-4.76-.42-4.4-.49-4-.54-3.67-.59-3.29-.62-2.92-.65-2.53-.66c-.4-.11-.75-.22-1.34-.41l-.83-.26c-.34-.11-1.78-.67-1.78-.67-.24-.09-.43-.19-.63-.28,0,0-.68-.32-.81-.4a4.23,4.23,0,0,1-.38-.23l-.25-.17a3.66,3.66,0,0,1-.46-.31l-.16-.15-.07-.09a2.92,2.92,0,0,1-.54-.67l-.12-.24V89.15l1.41.38a104.37,104.37,0,0,0,11.59,2.33,287.45,287.45,0,0,0,40.9,2.84h3.25q12.36-.06,24-.94ZM270,91.07V70.57l1-.09c4-.34,7.78-.75,11.31-1.23l1.27-.18V89.4l-1,.14c-3.53.49-7.37.92-11.3,1.26Zm-2.74,44.47-1.05.07c-7.38.51-15.17.77-23.15.77A292.25,292.25,0,0,1,204.11,134l-1-.14V121.1a1.37,1.37,0,1,0-2.74,0v12.4l-1.31-.22c-2.64-.44-5.06-.91-7.17-1.4l-.87-.2V125a1.37,1.37,0,0,0-2.74,0v6l-1.46-.45c-5.63-1.74-6.7-3.09-7-4l-.07-.19V107.21l1.64.86,1.16.55c.42.19.87.38,1.33.56l.44.18c.63.24,1.29.48,2,.7l.31.1c.6.19,1.21.37,1.85.55,0,0,1.78.47,2.34.6l.81.2c.57.13,1.14.26,2,.43l3.1.6c.9.17,1.82.32,2.75.47l2.76.41,2.87.37,3,.36,3.61.37,2.94.26,2.83.22,2.81.2,6.08.35,2.56.12,4.56.17,5.92.14,4.08,0s5.42-.07,6.67-.1l1.92,0,5.2-.19c1.62-.07,3.34-.15,5.11-.25l2.67-.16,2.23-.18Zm16.35-1.73-1,.13c-3.55.5-7.4.93-11.43,1.28l-1.22.11V115l1-.09c4-.34,7.76-.75,11.31-1.23l1.27-.18Zm22.76-7.51-.07.19c-1.17,3.22-12.18,5.56-18.63,6.68l-1.32.22V113.06l3.07-.51,2.57-.5.8-.17,2.52-.57c.55-.13,2.34-.6,2.34-.6.62-.18,1.23-.36,1.82-.55l.35-.1c.68-.22,1.34-.46,2-.7l.45-.18c.46-.18.9-.37,1.31-.55l1.17-.57,1.64-.86ZM305.78,102l.57.16v1.1l-.08.2a7.34,7.34,0,0,1-.76,1c-.11.09-.25.2-.63.46a5.08,5.08,0,0,1-.52.37l-.92.48c-.19.1-.38.2-.63.31l-2,.78c-.25.09-2.41.77-2.41.77-.39.12-2.86.78-2.86.78l-3.29.75-3.76.72-3.7.61h-.06c-4.85.74-10.23,1.34-16.1,1.8h-.05l-5.34.37-6.33.31-6.74.19c-2.31,0-4.7.06-7.15.06s-4.84,0-7.16-.06c-32.41-.62-54.32-5.49-56-9.66l-.23-.54.32-.49c.36-.56,1.5-1.72,5.07-3.07l.65-.24.51.47c.08.07.18.13.27.2l.41.3c7.69,5.86,34.1,8.1,54.37,8.23h3.63c20.27-.13,46.67-2.37,54.46-8.3l.31-.23a3.39,3.39,0,0,0,.28-.2l.51-.47.65.24A14.24,14.24,0,0,1,305.78,102Zm.58-20.09-.07.18c-.31.85-1.33,2.18-6.68,3.91l-.24,0a76,76,0,0,1-8.66,2.17l-1.7.33-2.67.46V68.65s2.36-.38,3.06-.51c0,0,1.89-.35,2.57-.49l3.35-.74,2.33-.61c.61-.17,1.2-.35,1.78-.53l.38-.11c.68-.23,1.34-.46,2-.7l.46-.19c.45-.18.89-.36,1.3-.55l1.17-.56,1.64-.86Zm-.58-24.31.57.16v1.09l-.08.2a2.24,2.24,0,0,1-.39.59,1.91,1.91,0,0,1-.37.46,3.19,3.19,0,0,1-.47.35l-.25.19a4.54,4.54,0,0,1-.43.29c-.2.12-.45.25-.7.37l-.83.42-1,.39-1,.39c-.39.14-.84.28-1.29.42l-1.12.36c-.43.13-.92.26-1.41.38l-1.45.39c-.51.13-1.07.25-1.63.38l-1.67.38c-.67.14-1.39.27-2.12.41l-1.63.31c-.79.14-1.64.28-2.5.41l-1.18.19h-.08c-4.86.74-10.27,1.34-16.12,1.8h0l-5.34.37c-1,.06-2,.1-3.06.15l-3.27.15c-.88,0-6.74.19-6.74.19-2.31,0-4.7.07-7.15.07s-4.84,0-7.16-.07c-32.41-.61-54.31-5.48-56-9.65l-.23-.54.32-.5c.37-.56,1.51-1.72,5.1-3.07l.65-.24.51.47c6.73,6.2,33.85,8.56,55,8.7h3.59c20.36-.13,46.83-2.38,54.45-8.28l.32-.23a1.85,1.85,0,0,0,.27-.19l.51-.48.65.25A14.11,14.11,0,0,1,305.78,57.59Zm.51-20c-.31.85-1.33,2.17-6.68,3.91l-.24,0a75.62,75.62,0,0,1-8.6,2.15l-1.77.35-2.66.46V24.21l3.06-.51,2.58-.5,2.51-.54.82-.19,2.33-.61c.62-.17,1.23-.36,1.81-.54l.35-.11q1-.33,2-.69l.45-.19c.45-.18.9-.36,1.32-.56l1.16-.55,1.64-.86V37.45Zm-.08-22.94a2.53,2.53,0,0,1-.43.61l-.24.31-.09.08A4.78,4.78,0,0,1,305,16l-.26.19a4,4,0,0,1-.43.29c-.17.1-.38.2-.58.3l-.42.21-.57.28c-.2.09-1.73.69-2,.78s-2.11.68-2.43.77l-2.87.77-3.31.75-3.74.72-3.64.59c-4.85.73-10.26,1.34-16.1,1.79l0,0-5.41.37-6.3.3c-1.25,0-2.56.08-3.86.11l-2.85.08c-2.31,0-4.69.07-7.13.07s-4.84,0-7.16-.07c-32.38-.61-54.29-5.48-56-9.64l-.18-.44.18-.44c2-4.72,27.88-9.77,63.18-9.77,38.12,0,61.17,5.61,63.15,9.67l.23.48Z"/><path class="cls-1" d="M214.27,82.69c3.85.34,7.95.62,12.17.81a1.36,1.36,0,0,0,1.34-1.3,1.33,1.33,0,0,0-.35-1,1.37,1.37,0,0,0-1-.44q-6.15-.3-12.11-.81A1.33,1.33,0,0,0,213,81.21,1.36,1.36,0,0,0,214.27,82.69Z"/><path class="cls-1" d="M201.43,32.85c-4.08-.63-7.7-1.34-10.75-2.12a2.7,2.7,0,0,0-.62-.08l.06,2.26c3.13.8,6.82,1.52,11,2.16a.24.24,0,0,1,.2.28.25.25,0,0,1-.27.2h0c-4.16-.63-7.87-1.36-11-2.16a.26.26,0,0,1-.18-.31.26.26,0,0,1,.24-.18V30.65a2.49,2.49,0,0,0-.61,4.91c3.2.82,7,1.57,11.23,2.21a2.34,2.34,0,0,0,.38,0,2.49,2.49,0,0,0,.37-4.95Z"/><path class="cls-1" d="M282.79,46.21l1.94-.27V23.34l-2.55.35c-3.5.47-7.28.89-11.26,1.23l-2.06.17V47.7l2.44-.21C275.37,47.13,279.23,46.7,282.79,46.21Zm-11.68-1V27.16c4-.35,7.81-.76,11.37-1.25V44c-3.54.5-7.35.92-11.37,1.27Z"/><path class="cls-1" d="M307.48,20.21V16.5l-3.28,1.72-.3.15-.28.13-.13.06-.4.19c-.4.19-.83.36-1.27.54l-.22.09-.21.09c-.61.23-1.25.46-1.93.67l-.14.05-.2.06c-.57.18-1.16.36-1.77.53l-.48.13-.23.06-1.59.4-.81.2-1.69.37-.23,0-.55.11c-.69.14-1.38.28-2.08.4l-.24.05-.24,0c-.69.13-1.39.25-2.09.36l-1.89.31V45.88l2.63-.45.42-.08.93-.16,1.36-.26.43-.09a78.11,78.11,0,0,0,8.57-2.13h.12l.34-.11c5.66-1.84,6.88-3.34,7.33-4.58l.13-.37V20.21Zm-8.15,20.25h-.16a74.31,74.31,0,0,1-8.62,2.17L288.8,43l-1.33.23v-18l2.12-.36.49-.1,2.12-.4.81-.17c.58-.13,1.16-.25,1.73-.39l.83-.19,1.64-.42.73-.2c.64-.18,1.25-.36,1.85-.55l.36-.11c.71-.23,1.38-.47,2-.72l.47-.18c.47-.19.93-.38,1.36-.58l.58-.28c.21-.1.44-.2.64-.31v17C304.9,38.18,302.87,39.31,299.33,40.46Z"/><path class="cls-1" d="M285.35,46.32l-.15,0-.19,0-.18,0-.24,0-.4.06-1.75.24-.16,0-1.67.22-1.08.13-.45.05c-1.48.18-3,.35-4.56.5l-.4,0-.51.05-2.29.2-.15,0-.24,0-1.25.1-.49,0-.55.05h-.2c-7.56.57-15.55.89-23.77.92h-3.24a286.35,286.35,0,0,1-40.69-2.81A105,105,0,0,1,189.24,44l-2.84-.77v9.58l.25.48a3.83,3.83,0,0,0,.76,1l.11.13.16.13a9,9,0,0,0,.92.64c.11.07.21.14.34.21s.56.28,1,.48l.12.06.41.19,1,.37.19.07.21.08.5.18c.34.12.73.23,1.11.35l.24.07.29.09.58.18,1.32.35.28.07.33.08.66.17c.49.12,1,.24,1.57.35l.29.07.39.08.71.16c.58.12,1.22.24,1.86.35l.3.06.43.08.74.14,2.09.33.34.06.48.08.79.12c.71.11,1.47.2,2.23.3l.42.06.54.07.88.12c.79.1,1.63.19,2.48.28l.43,0,.58.07.94.1,2.48.22.57,0,.66.06,1.09.1c.87.07,1.79.12,2.7.18l.6,0,.71,0,1.12.08,3,.14.61,0,.75,0,1.15,0c1.49.06,3.05.09,4.61.13l.52,0h.69q3,.06,6.17.06t6.18-.06h.67l.52,0c1.57,0,3.13-.07,4.63-.13l1.06,0,.7,0,.49,0c1.1,0,2.2-.09,3.25-.15l.88-.06.62,0h.22l3.42-.23.86-.08.58-.05.29,0c1-.08,2.09-.17,3.07-.27l.62-.07.44-.05c1.15-.12,2.3-.24,3.39-.38l.45-.06.31,0c1.14-.14,2.26-.29,3.32-.45l.3,0,.21,0,3.21-.51.28-.06c1.07-.19,2.1-.38,3.18-.6s2-.42,2.88-.65c4.72-1.14,7.87-2.36,9.38-3.64l.17-.15,0,0a3.64,3.64,0,0,0,.8-1l.25-.49V43.24l-2.83.77A105,105,0,0,1,285.35,46.32Zm12.11,6a1.94,1.94,0,0,1-.44.51l0,0c-1.13,1-4,2.09-8.45,3.17h0c-.86.21-1.79.41-2.77.62l-.12,0c-.94.19-1.95.38-3,.57l-.28.05c-1,.18-2.06.35-3.15.51l-.51.08c-1,.15-2.15.3-3.27.44l-.76.1c-1.07.14-2.21.26-3.35.38l-1,.11c-1.07.11-2.2.2-3.33.3l-1.43.13c-1.16.09-2.38.16-3.6.24l-1.49.1c-1.2.07-2.46.13-3.71.18l-1.75.08c-1.48.06-3,.1-4.6.13l-1.17,0q-3,.06-6.14.06t-6.13-.06l-1.2,0c-1.55,0-3.09-.07-4.58-.13-.64,0-1.25-.06-1.88-.09-1.2,0-2.41-.1-3.57-.17-.62,0-1.2-.08-1.81-.12l-3.28-.22-1.72-.16-3-.26-1.5-.17-2.88-.32-1.4-.19-2.61-.35-1.26-.2c-.81-.13-1.63-.25-2.39-.39L202.67,57l-2.12-.4-1.07-.24-1.82-.4-1-.25-1.54-.4-.82-.26c-.44-.13-.89-.26-1.28-.4l-.67-.24c-.36-.14-.74-.27-1-.4l-.47-.22c-.29-.14-.6-.28-.84-.41l-.27-.17a4.91,4.91,0,0,1-.63-.43s-.06-.07-.1-.1a1.52,1.52,0,0,1-.38-.45v-6.1a105.4,105.4,0,0,0,11.75,2.37,289.41,289.41,0,0,0,41,2.84h3.27c8.35,0,16.44-.36,23.92-.93h.2l1.05-.09,1.5-.13,2.47-.22.91-.09c1.57-.16,3.11-.33,4.61-.51l1.55-.18,1.85-.25,1.76-.25.84-.12,0,0,.3,0a106.06,106.06,0,0,0,11.76-2.37Z"/><path class="cls-1" d="M307.35,126.87l.13-.37V105.34l-3.29,1.73-.29.14-.27.13-.14.07-.4.19c-.4.18-.83.36-1.26.53l-.23.1-.21.08c-.61.24-1.25.46-1.92.68l-.15,0-.19.06c-.58.19-1.17.36-1.78.53l-.49.14-.22,0-1.59.41-.81.19-1.69.38-.25,0-.53.11-2.11.41-.23,0-.21,0-2.1.36-1.89.3v22.63l2.63-.46C299.75,132.22,306.31,129.73,307.35,126.87ZM287.47,114q1.08-.17,2.13-.36l.45-.08c.73-.14,1.45-.27,2.15-.42L293,113l1.73-.38.83-.2,1.64-.41.73-.2c.64-.18,1.26-.36,1.85-.55l.36-.11c.71-.23,1.38-.47,2-.72l.47-.19,1.36-.57.59-.29.63-.3v17c-.62,1.69-6.71,4.05-17.77,6Z"/><path class="cls-1" d="M245.13,28.28h1.68l1.56,0h0l1.73,0,.55,0,1.4,0,.7,0,1.49-.05.71,0,1.88-.08h.44l2.54-.12H260l-.27-2.23-2.52.11h-.44l-1.87.07-.56,0h-.15l-1.48.05-.69,0-1.39,0h-.56l-1.67,0h-.12l-1.48,0h-.38l-1,0h-1.22l0,2.24h.88Z"/><path class="cls-1" d="M235.87,25.48c2.32.05,4.72.07,7.18.07s4.83,0,7.15-.07c.43,0,.84,0,1.25,0l.89,0H253c1.34,0,2.67-.07,4-.12l1.76-.08,1-.05,1,0,2.58-.13,1.81-.12.93-.07.73,0c.61,0,1.22-.08,1.87-.14l.29,0c5.73-.45,11.07-1,15.87-1.77h.05l.17,0,1-.17.44-.07.66-.11,1.47-.24L290,22l.56-.11.58-.11,1.27-.25,1.26-.28.48-.11.51-.11,1.1-.26,1.07-.28.41-.11.44-.12,1-.27.91-.29.34-.11.35-.11c.31-.09.61-.19.88-.29s.52-.19.77-.29l.26-.1.28-.11c.27-.1.53-.21.76-.31l.63-.3.18-.1.2-.09.66-.35a5.48,5.48,0,0,0,.63-.43l.12-.08a6.68,6.68,0,0,0,.6-.45,3.8,3.8,0,0,0,.52-.59,3.16,3.16,0,0,0,.51-.78l.44-1-.46-.95c-2.82-5.78-31-10.31-64.16-10.31-33.5,0-61.71,4.6-64.21,10.46l-.37.87.36.88C181.05,20.47,205.57,24.91,235.87,25.48Zm7.18-20.29c38.78,0,60.53,5.74,62.14,9a1.79,1.79,0,0,1-.25.33,2.1,2.1,0,0,1-.24.3,4.5,4.5,0,0,1-.51.36,4.78,4.78,0,0,1-.47.33c-.21.12-.49.25-.73.37s-.45.24-.72.36-.63.25-.95.37-.6.25-1,.38l-1.17.37c-.39.13-.76.26-1.19.38s-.93.25-1.39.38l-1.44.38-1.56.36c-.57.13-1.1.26-1.71.38s-1.21.24-1.82.35-1.22.25-1.89.37l-2.09.34-1.47.24h0c-4.88.75-10.32,1.35-16.17,1.8l-.07,0-2.53.17-2.71.19-3.55.17-2.72.13-4.57.13-2.12.06q-3.45.06-7.11.06t-7.14-.06c-34.55-.66-53.75-6-55-9C182.31,11,204.07,5.19,243.05,5.19Z"/><path class="cls-1" d="M242.66,72.73h1.59l-.19-2.25h-2l0,2.25h.63Z"/><path class="cls-1" d="M226.53,35.2c-4.1-.19-8.11-.46-11.92-.8h-.24l0,2.25c3.84.34,7.88.61,12,.81a.24.24,0,0,1,.23.25.28.28,0,0,1-.14.24c-4.21-.2-8.3-.47-12.15-.81a.25.25,0,0,1-.22-.27c0-.1,0-.22.22-.22V34.39a2.46,2.46,0,0,0-2.46,2.27,2.49,2.49,0,0,0,2.26,2.71q5.81.51,12.25.81a2.49,2.49,0,0,0,.11-5Z"/><path class="cls-1" d="M214.91,115.93l2.45.2.8.05,2,.14.83.06,2.06.12.61,0,2.54.13h.06l2.57.11.37,0,1.94.07.68,0,1.57,0,.6,0,1.55,0H236l1.76,0h0l1.56,0H242l-.16-2.25h-2.54l-1.57,0-1.75,0h-.4l-1.55,0-.59,0-1.57,0h-.15l-.52,0-1.93-.08h-.36l-2.62-.12-2.52-.13-.4,0h-.21l-2.05-.12-.82-.06-2-.14h-.23l-.57,0-2.43-.2h-.16l-.21,0-2.95-.26-.21,2.24,3,.26Z"/><path class="cls-1" d="M186.07,87.07l.13,0,.32.06h0a91.9,91.9,0,0,0,13.09,2.95l.35.06c1,.16,2,.3,3,.45l.23,0,.16,0c6.6.92,14,1.59,22.11,2l.88,0c1.48.07,3,.13,4.5.18,1.35.05,2.7.09,4.09.12l1.79,0H237c2,0,4,0,6.07,0s4.09,0,6.08,0h.27l1.78,0c1.42,0,2.8-.07,4.16-.12s2.93-.11,4.38-.18l1,0c1.89-.09,3.74-.2,5.57-.33l2.09-.14V69.51l-2.39.16h-.27l-.76,0-1.95.12-.31,0-.42,0c-1.76.1-3.45.19-5,.25l-.35,0h-.23l-1.76.07-.71,0-1.48,0-.69,0-1.46,0h-.45c-1.24,0-2.36.06-3.31.07h-2.55l0,2.25h1.23l1,0h.38l3.34-.07h.45l1.46,0,.7,0,1.49,0,.71,0,1.77-.07.59,0c1.61-.07,3.31-.15,5.07-.25l.73,0,2-.11.86-.06h.18V90.08c-1.82.12-3.65.24-5.53.33l-1,0q-2.14.11-4.35.18l-4.13.11-2,0c-2,0-4,.06-6,.06s-4.06,0-6-.06l-2.05,0-4.06-.11q-2.26-.08-4.47-.18l-.88,0c-8-.4-15.43-1.07-21.91-2l-.39-.06c-1-.14-2-.29-2.93-.44l-.46-.07a89.12,89.12,0,0,1-12.93-3,.34.34,0,0,0-.14,0h-.16c-3.45-1.12-5.43-2.21-5.76-3.1V64.66l.63.3.59.28c.43.2.89.39,1.36.58l.47.19c.64.25,1.32.49,2,.72l.34.1c.61.19,1.22.38,1.86.56l.74.19c.53.15,1.08.29,1.64.42l.83.2,1.73.38.8.17,2.15.41.46.09c.9.16,1.82.32,2.76.46l.44.07,2.35.35.83.11,2,.27.91.11,2.06.23.82.1,2.56.26.3,0,2.93.27.49,0,2.33.18.87.06,2,.14.84,0,2,.13.69,0,2.51.13h.06l2.54.12.52,0,1.82.07.68,0,1.57.06.6,0,1.55,0H236l1.76,0h0l1.56,0h.39l.95,0H242l-.15-2.25h-2.55l-1.57,0-1.74,0h-.41l-1.55,0-.59,0-1.57,0-.67,0-1.81-.08h-.22l-.3,0L226.32,70l-2.49-.14-.45,0-.24,0-2-.12-.84,0-1.95-.14-.26,0-.6,0-2.31-.18-.24,0-.25,0L211.79,69l-.14,0h-.15L209,68.71l-.55-.06-.26,0-2-.23-.9-.11-2-.26L203,68l-.61-.09-2.32-.34-.22,0-.21,0c-.92-.14-1.83-.29-2.72-.45l-.22,0-.22,0-2.11-.4-.55-.12-.24-.05L191.88,66l-.82-.19c-.54-.13-1.06-.27-1.58-.41l-.22-.06-.49-.13c-.62-.17-1.21-.35-1.79-.53l-.19-.06-.14,0c-.67-.22-1.31-.45-1.92-.68l-.21-.08-.23-.1c-.43-.17-.86-.35-1.26-.53l-.4-.19-.13-.07-.28-.13-.3-.14-3.29-1.73V82.19l.14.38c.45,1.2,1.65,2.67,7.18,4.46Z"/><path class="cls-1" d="M265.8,114.08l-.84.06-2,.12h-.23l-.41,0c-1.78.1-3.49.18-5.11.25h-.44l-1.87.07-.56,0h-.15l-1.48,0-.69,0-1.6,0h-.31l-3.31.06h-2.54v2.25l-.19-2.24h-2l0,2.24h4.78l3.34-.07h.45l1.46,0,.7,0,1.49,0,.71,0,1.88-.07.44,0c1.63-.07,3.36-.15,5.14-.25l.65,0,2-.12.84-.06h.19v18.18c-6.86.47-14.53.76-23.08.76a290.54,290.54,0,0,1-38.79-2.33V121.1a2.49,2.49,0,1,0-5,0v11.07q-4-.66-7.11-1.38V125a2.49,2.49,0,1,0-5,0v4.51c-3.8-1.18-6-2.34-6.31-3.28V109.06c.2.11.42.2.63.3l.59.29c.43.19.89.39,1.37.58l.45.18q1,.38,2,.72l.32.1c.61.19,1.24.38,1.89.56l.71.19,1.66.43.82.19,1.76.39.77.16c.72.15,1.46.29,2.2.42l.41.08,2.78.47.38.06,2.4.35.83.11c.68.1,1.37.19,2.06.27l.87.11,2.12.24.76.09,2.67.27.19,0,0-2.26c-.88-.08-1.77-.17-2.65-.27l-.49,0-.27,0-2.09-.24-.87-.11-2-.26-.26,0-.56-.07L200,112l-.18,0-.19,0c-.93-.15-1.84-.3-2.73-.46l-.19,0-.22,0-2.15-.41-.52-.11-.24,0-1.71-.38-.8-.19-1.61-.41-.22-.06-.47-.12c-.62-.18-1.22-.36-1.81-.55l-.3-.09c-.68-.22-1.32-.44-1.94-.68l-.19-.08-.23-.09c-.44-.18-.87-.35-1.27-.54l-.4-.19-.13-.06-.28-.14-.3-.14-3.29-1.72V126.6l.14.37c.47,1.25,1.75,2.78,7.75,4.64l2.91.91V125a.25.25,0,0,1,.25-.25.25.25,0,0,1,.25.25v7.62l1.74.4c2.17.49,4.61,1,7.24,1.41l2.61.44V121.1a.25.25,0,0,1,.49,0v13.78l2,.27a292.6,292.6,0,0,0,39.09,2.35c8,0,15.81-.26,23.23-.77l2.09-.14V116.31l-.18-2.39Z"/><path class="cls-1" d="M226.53,79.65c-4.1-.2-8.11-.47-11.92-.8l-.24,0,0,2.25c3.84.34,7.88.61,12,.81a.25.25,0,0,1,.23.26.26.26,0,0,1-.14.23c-4.2-.19-8.29-.46-12.15-.81a.24.24,0,0,1-.22-.26c0-.11,0-.23.22-.23V78.83a2.46,2.46,0,0,0-2.46,2.28,2.49,2.49,0,0,0,2.26,2.7q5.81.51,12.25.82a2.49,2.49,0,0,0,.11-5Z"/><path class="cls-1" d="M243.05.2c-2.74,0-67.15.16-67.15,14.05v23.1c0,3,3,5.36,7.77,7.21v6.88c-3.76,1.4-7.77,3.6-7.77,7.25v23.1c0,3,3,5.36,7.77,7.22v6.83c-3.75,1.4-7.77,3.6-7.77,7.25v23.1c0,13.89,64.41,14.05,67.15,14.05,1.11,0,12.36,0,25.34-1a1.89,1.89,0,0,0,.23.05h.19c5.34-.41,10.32-1,14.89-1.61l.21,0-.53-2.19c-4.55.65-9.45,1.18-14.59,1.58h-.19l-.18,0h-.19c-12.89,1-24,1-25.18,1-31.9,0-64.91-4.41-64.91-11.8v-23.1c0-1.84,2.13-3.58,6.31-5.15l1.46-.54V87.47l-1.43-.56c-4.09-1.59-6.34-3.41-6.34-5.12V58.69c0-1.85,2.13-3.58,6.31-5.15l1.46-.54V43l-1.43-.56c-4.09-1.6-6.34-3.42-6.34-5.12V14.25c0-7.39,33-11.8,64.91-11.8S308,6.86,308,14.25v23.1c0,1.7-2.25,3.52-6.34,5.12l-1.43.56V53l1.46.54q4.1,1.53,5.54,3.26l-.87-.23A16.32,16.32,0,0,0,301.44,54l-1.27-.51-1,.94-.17.12-.37.27c-6.92,5.35-32,7.89-53.78,8h-3.57c-22.63-.14-48.2-2.8-54.28-8.4l-1-.94-1.3.49c-3,1.12-4.86,2.3-5.64,3.52l-.64,1,.45,1.09c2.18,5.32,26.7,9.77,57,10.35,2.32,0,4.72.06,7.18.06s4.85,0,7.17-.06l1.89-.05,1.07,0,1.09,0,2.72-.08,1.47-.07.92,0,.88,0c1,0,2.08-.09,3.08-.15l1.16-.08.89-.06,3.2-.22.29,0c5.73-.44,11.07-1,15.87-1.76h.06l.17,0,.44-.07.33-.06.26,0c.93-.14,1.86-.29,2.72-.44l.76-.15.48-.09.39-.08c.74-.13,1.47-.27,2.15-.42l.77-.17.46-.1.42-.1,1.69-.39.71-.19.38-.1.39-.1c.5-.13,1-.26,1.43-.39l.56-.18.28-.1.27-.08,1.36-.44.54-.21.23-.1.26-.1c.36-.13.72-.27,1-.41a5.23,5.23,0,0,0,.53-.26l.16-.08.2-.1c.28-.14.55-.27.77-.4a5.29,5.29,0,0,0,.61-.43l.12-.08a5.67,5.67,0,0,0,.61-.47,3.37,3.37,0,0,0,.53-.64,3.1,3.1,0,0,0,.51-.83l.14-.36V58.8h0V58.7l.06-1.43a2.64,2.64,0,0,1,.43,1.42v23.1c0,1.71-2.25,3.53-6.34,5.12l-1.43.56V97.4l1.46.54q4.11,1.55,5.55,3.27l-.87-.23a16.53,16.53,0,0,0-4.85-2.58l-1.29-.51-1,1L299,99c-.12.09-.25.17-.44.32-7,5.34-32,7.87-53.71,8h-3.6c-21.69-.14-46.71-2.67-53.78-8.07L187.1,99l-.14-.1-1-1-1.3.49c-2.95,1.12-4.83,2.3-5.61,3.51l-.64,1,.45,1.09c2.18,5.33,26.7,9.78,57,10.35,2.32,0,4.72.07,7.18.07s4.85,0,7.17-.07l1.93,0,1.06,0,1.09,0,2.68-.08,1.57-.08.95,0,1,0c1,0,1.94-.08,2.87-.14l1.72-.11.93-.07.7,0,1.93-.14.23,0c5.74-.45,11.1-1,15.91-1.77h.06l.17,0,.84-.13.48-.08.65-.11,1.77-.29,1-.19.54-.1.56-.11,1.7-.33.9-.2.49-.12.48-.11,1.48-.33.85-.23.42-.12.45-.12c.41-.1.81-.21,1.18-.32l.85-.27.35-.11.38-.13c.31-.09.62-.19.89-.29l.76-.29.27-.11.3-.12c.25-.09.51-.19.73-.29s.47-.23.68-.34l.19-.1.2-.1c.21-.1.42-.21.59-.31a6,6,0,0,0,.62-.43l.19-.14a4.89,4.89,0,0,0,.53-.41,3.17,3.17,0,0,0,.54-.66,2.79,2.79,0,0,0,.5-.81l.14-.35v-.29h0v-.1l.06-1.43a2.67,2.67,0,0,1,.43,1.42v23.1c0,1.32-1.65,5.86-22.94,9l-.2,0-.64.09-.59.09.32,2.22,1.44-.2,0,0c13.41-2,24.81-5.4,24.81-11.24v-23.1c0-3.65-4-5.85-7.77-7.25V89c4.75-1.86,7.77-4.22,7.77-7.22V58.69c0-3.65-4-5.85-7.77-7.25V44.56c4.75-1.85,7.77-4.21,7.77-7.21V14.25C310.21.36,245.8.2,243.05.2Zm62.18,58.42a1.5,1.5,0,0,1-.23.3,1.9,1.9,0,0,1-.25.35c-.13.11-.33.24-.5.36s-.27.21-.46.33-.54.28-.82.42-.37.2-.6.3-.77.31-1.18.47c-.24.09-.45.19-.71.28-.47.17-1,.33-1.55.5l-.81.26c-.53.16-1.15.32-1.75.48-.36.09-.68.19-1.06.28-.64.16-1.36.32-2.06.47l-1.2.28-2.5.48c-.41.08-.79.16-1.22.23-.92.17-1.93.33-2.93.49l-.76.12h0c-4.88.74-10.32,1.34-16.17,1.8h-.07l-3.23.22-1.93.14-3.92.19-2.38.11c-1.22.05-2.52.07-3.78.11l-2.94.08c-2.31,0-4.68.07-7.13.07s-4.83,0-7.14-.07c-34.57-.65-53.78-6-55-9,.17-.25,1-1.3,4.56-2.63,7.41,6.83,37,8.88,55.79,9h3.61C263.2,65,291.68,63,300,56.58h0c.21-.17.48-.32.66-.49,3.76,1.42,4.49,2.49,4.58,2.52Zm0,44.4a1.7,1.7,0,0,1-.21.28,2,2,0,0,1-.27.37c-.11.1-.29.2-.43.31s-.31.25-.53.38-.45.23-.67.34-.46.26-.76.39-.62.25-.94.37l-.95.38c-.36.13-.8.26-1.21.39l-1.14.37-1.58.42-1.23.33c-.6.15-1.27.3-1.92.44-.45.1-.87.21-1.35.31-.69.15-1.47.29-2.22.43l-1.49.29-2.39.39-1.3.21h0c-4.88.74-10.32,1.35-16.17,1.8l-.07,0-2.53.17c-.88.06-1.72.13-2.63.18-1.22.07-2.52.12-3.8.18-.84,0-1.64.09-2.5.12-1.21,0-2.49.08-3.75.11l-3,.08c-2.31,0-4.68.07-7.13.07s-4.83,0-7.14-.07c-34.57-.65-53.78-6-55-9,.17-.26,1-1.3,4.53-2.63.18.17.44.33.65.49l.11.08c8.38,6.39,36.73,8.34,55,8.46h3.64c18.32-.12,46.67-2.07,55.05-8.46l.1-.08a7.07,7.07,0,0,0,.66-.49c3.74,1.42,4.46,2.49,4.55,2.51Z"/><path class="cls-1" d="M284.73,132.83V112.19l-2.55.34c-3.52.48-7.31.9-11.26,1.23l-2.06.18v22.61l2.45-.21c4.06-.36,7.92-.79,11.48-1.29l1.94-.27Zm-2.25,0c-3.54.49-7.35.92-11.37,1.27V116c4-.34,7.82-.76,11.37-1.24Z"/><path class="cls-1" d="M201.43,77.29c-4.08-.62-7.7-1.33-10.75-2.11a2.25,2.25,0,0,0-.62-.08l.06,2.25c3.13.8,6.82,1.53,11,2.16a.28.28,0,0,1,.2.28A.25.25,0,0,1,201,80h0c-4.16-.64-7.87-1.37-11-2.17a.25.25,0,0,1,.06-.49V75.1a2.49,2.49,0,0,0-.61,4.91c3.2.82,7,1.56,11.23,2.21a2.34,2.34,0,0,0,.38,0,2.5,2.5,0,0,0,.37-5Z"/><path class="cls-1" d="M288.27,89.8l.94-.17,1.28-.24.44-.09a76.87,76.87,0,0,0,8.63-2.15h.12L300,87c5.66-1.83,6.88-3.34,7.33-4.57l.13-.38V60.94l-3.29,1.73-.29.14-.27.13-.15.07-.39.19c-.4.18-.82.36-1.25.53l-.24.09-.21.09c-.61.23-1.25.46-1.92.68l-.16,0-.21.07c-.56.18-1.14.35-1.74.52l-.51.14-.22.06-1.57.4-.83.19-1.66.37-.26.05-.55.12-2.06.4-.25,0-.24.05-2.1.35-1.88.31V90.32l2.63-.45Zm-.81-20.19c.72-.12,1.43-.23,2.13-.36l.5-.09,2.11-.41.82-.17,1.71-.38.85-.2,1.62-.41.75-.21c.63-.17,1.23-.35,1.82-.54l.38-.12c.71-.23,1.38-.46,2-.71l.48-.19c.46-.19.92-.38,1.35-.58l.59-.28.63-.3v17c-.34.92-2.37,2.06-5.91,3.2h-.16a77,77,0,0,1-8.68,2.18c-.55.11-1.09.22-1.68.32l-1.35.24Z"/><path class="cls-1" d="M186.07,42.62l.13,0,.32.05h0a92.12,92.12,0,0,0,13,2.94l.18,0,.3,0c1,.15,2,.3,3,.44l.24,0,.19,0c6.6.92,14,1.59,22.08,2l.88,0c1.48.07,3,.13,4.5.18,1.35,0,2.7.09,4.09.12l1.79,0H237c2,0,4,.06,6.07.06s4.09,0,6.08-.06h.27l1.78,0c1.42,0,2.8-.08,4.16-.12s2.93-.11,4.38-.18l1,0c1.89-.09,3.74-.21,5.57-.33l2.09-.15V27.46l-.18-2.38-2.39.15-.84.06-2,.12h-.21l-.42,0-2.44.13.12,2.24,2.44-.13.65,0,2-.12.84-.05.19,0V45.64c-1.82.12-3.65.23-5.53.33l-1,.05-4.35.17c-1.35.05-2.72.09-4.13.12l-2,0c-2,0-4,0-6,0s-4.06,0-6,0l-2.05,0c-1.38,0-2.73-.07-4.06-.12q-2.26-.07-4.47-.18l-.88,0c-8-.4-15.4-1.07-21.88-2l-.43-.06c-1-.14-2-.29-2.91-.44l-.48-.08a86.39,86.39,0,0,1-12.92-3h-.3c-3.45-1.12-5.43-2.22-5.76-3.1V20.21c.2.11.42.21.63.31l.59.28c.43.2.89.39,1.36.58l.47.19c.64.24,1.32.48,2,.71l.34.11c.61.19,1.23.37,1.87.55l.72.2,1.65.42.83.19c.57.14,1.15.26,1.74.39l.79.17,2.15.41.46.08c.9.17,1.82.32,2.76.47l.44.07,2.35.34.83.12,2.05.26.89.11c.69.09,1.39.17,2.09.24l.8.09,2.56.26.3,0,2.94.26.46,0,2.38.19.8.06,2,.14.88.05,2,.12.72,0,2.49.13h.07l2.54.11.49,0,1.84.08.73,0,1.46.05.72,0,1.45,0,.46,0,1.76,0h0l1.56,0h5L244.08,26H242v2.24L241.88,26h-1.23l-.94,0h-.38l-1.57,0-1.74,0h-.46l-1.44,0-.72,0L232,25.82h-.22l-.51,0-1.82-.07h-.49l-2.6-.12-2.48-.13-.42,0-.29,0-2-.12-.87-.06-2-.13-.24,0-.56,0-2.36-.19H215l-.25,0-2.92-.27h-.29L209,24.27l-.53-.06-.26,0-2.08-.24-.88-.11-2-.26-.26,0-.56-.08-2.32-.34-.22,0-.21,0c-.92-.14-1.83-.3-2.72-.46l-.23,0-.21,0-2.11-.41-.56-.11-.22,0-1.7-.37-.8-.2-1.6-.4-.23-.07-.47-.12c-.61-.17-1.21-.35-1.79-.54l-.33-.09c-.67-.22-1.31-.45-1.92-.68l-.21-.09-.23-.09c-.43-.18-.86-.35-1.26-.54l-.53-.25-.28-.13-.3-.14-3.29-1.73V37.75l.14.38c.45,1.2,1.65,2.66,7.18,4.45Z"/><path class="cls-1" d="M271.33,91.93c4.06-.35,7.92-.78,11.46-1.28l1.94-.27V67.79l-2.55.34c-3.5.48-7.29.89-11.26,1.23l-2.06.18V89.69l0,2.45Zm-.22-20.33c4-.34,7.81-.76,11.37-1.24V88.43c-3.53.49-7.33.91-11.35,1.26h0Z"/><path class="cls-1" d="M243.05,93.59h-1.62a286.5,286.5,0,0,1-40.73-2.83,102.51,102.51,0,0,1-11.46-2.3l-2.84-.77v9.58l.25.49a3.67,3.67,0,0,0,.71.92l.17.2.17.13a5.19,5.19,0,0,0,.6.43l.2.12a3.84,3.84,0,0,0,.47.3c.15.08.33.17.52.25l.17.08.16.08c.22.11.43.21.69.32l.5.19.23.09.18.07,1,.35.57.18.28.08.23.08c.36.11.73.23,1.14.34l.73.2.37.09.33.09c.37.1.74.2,1.15.29s.63.15,1,.22l.45.1.42.09,1.13.25,1.25.24.49.09.49.09c.36.07.71.14,1.1.2s1,.17,1.51.25l.54.09.55.08,1.1.18,1.77.24.59.08.61.08,1.09.14c.67.09,1.37.16,2.07.24l.6.06.64.07,1.12.13,2.56.23.52,0,.65.06,1,.09,2.88.2.52,0,.68,0,1.07.07c1.18.07,2.41.12,3.65.18h.24l.65,0,.94,0c1.55.06,3.16.1,4.79.14h.45l.59,0q3,.06,6.17.06t6.18-.06l.59,0h.45c1.63,0,3.24-.08,4.79-.14l.85,0,.7,0,3.94-.19.84-.06.65,0,3.66-.25.77-.07.61-.05c1.16-.1,2.31-.2,3.41-.31l.65-.07.46,0c1.14-.12,2.27-.24,3.33-.37l.5-.07.35,0c1.11-.15,2.21-.29,3.23-.44l.36-.06.25,0c1.08-.16,2.13-.33,3.11-.5l.24,0,.15,0c1-.19,2-.37,3-.56l.22,0c1-.2,1.89-.41,2.83-.64s1.74-.43,2.55-.66,1.51-.46,2.23-.71,1.26-.45,1.83-.7a14.61,14.61,0,0,0,1.47-.71l.12-.06,0,0a6.78,6.78,0,0,0,1.1-.76l.19-.16,0,0a3.89,3.89,0,0,0,.77-1l.25-.49V87.68l-2.83.77a104.85,104.85,0,0,1-11.47,2.31l-.23,0-.16,0-.18,0-.23,0-.39.06-1.78.25-.16,0-1.67.22-1,.13-.45,0c-1.52.19-3.07.36-4.66.51l-.37,0-.47,0-2.3.21h-.16l-.28,0-1.2.11-.49,0-.55,0h-.2c-7.56.58-15.55.89-23.77.93Zm25.56,1.3h.2l1.05-.08,1.5-.13,2.47-.22.86-.09c1.6-.16,3.17-.33,4.69-.52.51-.06,1-.11,1.51-.18l1.85-.25,1.79-.25.82-.11,0,0,.35,0a107.69,107.69,0,0,0,11.72-2.36v6.09a2,2,0,0,1-.42.49l0,0a5.81,5.81,0,0,1-.84.56l-.05,0a13.38,13.38,0,0,1-1.25.61l0,0c-.48.2-1,.41-1.64.62l-.06,0c-.63.22-1.31.43-2.06.65h0c-.74.21-1.55.42-2.42.63l-.08,0c-.84.2-1.74.4-2.68.6l-.22,0c-.91.18-1.88.37-2.89.55l-.39.07c-1,.17-2,.33-3.06.49l-.59.1c-1,.15-2.1.29-3.19.43l-.84.11c-1.05.13-2.17.25-3.29.37l-1.1.12c-1.11.11-2.28.21-3.45.3l-1.3.12-3.69.25-1.41.1-4,.19-1.46.07c-1.54.06-3.14.1-4.75.13l-1,0q-3,.06-6.14.06t-6.13-.06l-1,0c-1.62,0-3.22-.07-4.76-.13l-1.57-.08c-1.31-.05-2.62-.11-3.87-.18L224,104c-1.14-.07-2.29-.14-3.37-.23-.59,0-1.12-.1-1.69-.15-1-.09-2.07-.17-3-.27l-1.74-.19c-.89-.1-1.79-.19-2.64-.3l-1.67-.22-2.34-.32-1.62-.25-2-.33c-.54-.09-1-.19-1.55-.29l-1.71-.32-1.51-.34-1.36-.3c-.52-.12-1-.25-1.44-.37l-1.06-.28c-.47-.13-.88-.27-1.3-.4l-.81-.25c-.39-.13-.71-.26-1.05-.39l-.67-.25c-.28-.12-.5-.23-.74-.35l-.58-.28c-.17-.09-.28-.18-.42-.27a5.91,5.91,0,0,1-.49-.33c-.07-.06-.1-.11-.16-.17a1.63,1.63,0,0,1-.33-.39v-6.1A107,107,0,0,0,200.36,93a288.31,288.31,0,0,0,41.06,2.84h3.27C253,95.79,261.13,95.46,268.61,94.89Z"/><path class="cls-1" d="M245.13,28.28h1.68l1.56,0h0l1.73,0,.55,0,1.4,0,.7,0,1.49-.05.71,0,1.88-.08h.44l2.54-.12H260l-.21-1.11-2.53.11h-.44l-1.88.07-.56,0h-.15l-1.48,0-.7,0-1.4,0h-.55l-1.73,0-1.55,0h-2.56v1.12h.88Z"/><path class="cls-1" d="M235.89,24.36c2.32,0,4.71.07,7.16.07s4.82,0,7.13-.07l1.24,0,.89,0H253c1.33,0,2.66-.07,3.94-.12l1.74-.08,1-.05,1-.05c.87,0,1.74-.07,2.57-.12l1.79-.12.93-.07.73-.05c.61,0,1.22-.08,1.83-.12l.18,0h0c5.79-.45,11.17-1.05,16-1.78h.13l1-.17.44-.07.66-.11,1.45-.24,1.34-.25.57-.11.58-.12,1.25-.24,1.24-.28.48-.11.51-.11,1.08-.25,1.05-.28.41-.11.44-.11,1-.27c.32-.09.6-.18.88-.28l.35-.11.36-.11.84-.27.72-.28.27-.11.29-.11.7-.28.57-.28.2-.1.2-.1a6.61,6.61,0,0,0,.6-.31,4,4,0,0,0,.43-.29l.12-.09.13-.09a4,4,0,0,0,.48-.36,3.28,3.28,0,0,0,.42-.48,2.24,2.24,0,0,0,.34-.51l.22-.48-.23-.48c-2-4.06-25-9.67-63.15-9.67-35.3,0-61.16,5-63.17,9.77l-.19.44.18.44C181.6,18.88,203.51,23.75,235.89,24.36Zm7.16-19.17c38.78,0,60.53,5.74,62.14,9a1.79,1.79,0,0,1-.25.33,2.1,2.1,0,0,1-.24.3,4.5,4.5,0,0,1-.51.36,4.78,4.78,0,0,1-.47.33c-.21.12-.49.25-.73.37s-.45.24-.72.36-.63.25-.95.37-.6.25-1,.38l-1.17.37c-.39.13-.76.26-1.19.38s-.93.25-1.39.38l-1.44.38-1.56.36c-.57.13-1.1.26-1.71.38s-1.21.24-1.82.35-1.22.25-1.89.37l-2.09.34-1.47.24h0c-4.88.75-10.32,1.35-16.17,1.8l-.07,0-2.53.17-2.71.19-3.55.17-2.72.13-4.57.13-2.12.06q-3.45.06-7.11.06t-7.14-.06c-34.55-.66-53.75-6-55-9C182.31,11,204.07,5.19,243.05,5.19Z"/><path class="cls-1" d="M306.35,107.2l-1.64.86-.35.17-.25.12-.14.07-.42.2c-.42.19-.86.38-1.32.56l-.21.09-.24.09c-.63.24-1.29.48-2,.7l-.16,0-.19.06-1.81.54-.5.13-.22.06c-.53.14-1.06.28-1.61.41l-.83.2-1.7.37-.26.06-.54.11-2.13.41-.21,0-.24,0-2.11.36-1,.15v20.33l1.32-.22c6.45-1.12,17.46-3.46,18.63-6.68l.07-.19V107.2Zm-18.88,24.86V114q1.08-.17,2.13-.36l.45-.08c.73-.14,1.45-.27,2.15-.42L293,113l1.73-.38.83-.2,1.64-.41.73-.2c.64-.18,1.26-.36,1.85-.55l.36-.11c.71-.23,1.38-.47,2-.72l.47-.19,1.36-.57.59-.29.63-.3v17C304.62,127.79,298.53,130.15,287.47,132.06Z"/><path class="cls-1" d="M269.29,93.72l-.55,0h-.22c-7.58.58-15.6.89-23.84.93h-3.25a288.93,288.93,0,0,1-40.9-2.83,105.06,105.06,0,0,1-11.59-2.34l-1.41-.38V97l.12.24a2.5,2.5,0,0,0,.53.66l.15.18.09.07a5.55,5.55,0,0,0,.48.34l.23.15c.12.07.23.15.38.23a3.77,3.77,0,0,0,.45.22l.19.09.17.09c.19.09.39.19.62.28l.46.18.24.09.19.07.9.34.53.16.3.09.23.08,1.1.33.71.19.38.1.33.08c.36.1.73.2,1.12.29l.93.21.45.1.42.09,1.12.25,1.23.23.49.09.49.1,1.08.2,1.49.24.55.09.55.09,1.08.17,1.76.24.59.07.61.09,1.08.14,2.05.23.6.06.65.08,1.1.12,2.55.23.52,0,.65.06,1,.09,2.86.2.53,0,.68,0,1,.07c1.18.07,2.41.12,3.64.17h.24l.66,0,.92,0c1.55.06,3.15.1,4.77.14h1c2,0,4,.06,6.15.06s4.16,0,6.16-.06h1c1.63,0,3.23-.08,4.78-.14l.83,0,.71,0,3.93-.19.82-.06.66,0,3.64-.25.75-.07.62,0c1.16-.1,2.31-.2,3.4-.31l.63-.06.47-.06c1.13-.12,2.26-.24,3.32-.37l.47-.06.37-.05c1.1-.14,2.19-.28,3.21-.43l.34-.06.26,0c1.07-.16,2.11-.32,3.09-.5l.22,0,.16,0c1-.18,2-.36,2.93-.55l.22,0c.95-.2,1.87-.4,2.8-.63s1.7-.43,2.5-.65,1.47-.45,2.18-.69,1.21-.44,1.75-.67a13.41,13.41,0,0,0,1.42-.69,7.15,7.15,0,0,0,1-.68l.11-.1,0,0a2.67,2.67,0,0,0,.6-.75l.13-.24V89.15l-1.42.38a104.58,104.58,0,0,1-11.59,2.34l-.23,0-.14,0-.15,0-.29,0-.39.06-1.79.25-.16,0-1.67.23-1,.12-.46.06q-2.28.27-4.68.51l-.37,0-.47,0-2.31.21h-.16l-.29,0-1.2.11Zm2.07,1,2.47-.22.86-.09c1.6-.16,3.17-.33,4.69-.52.51-.06,1-.11,1.51-.18l1.85-.25,1.79-.25.82-.11,0,0,.35,0a107.69,107.69,0,0,0,11.72-2.36v6.09a2,2,0,0,1-.42.49l0,0a5.81,5.81,0,0,1-.84.56l-.05,0a13.38,13.38,0,0,1-1.25.61l0,0c-.48.2-1,.41-1.64.62l-.06,0c-.63.22-1.31.43-2.06.65h0c-.74.21-1.55.42-2.42.63l-.08,0c-.84.2-1.74.4-2.68.6l-.22,0c-.91.18-1.88.37-2.89.55l-.39.07c-1,.17-2,.33-3.06.49l-.59.1c-1,.15-2.1.29-3.19.43l-.84.11c-1.05.13-2.17.25-3.29.37l-1.1.12c-1.11.11-2.28.21-3.45.3l-1.3.12-3.69.25-1.41.1-4,.19-1.46.07c-1.54.06-3.14.1-4.75.13l-1,0q-3,.06-6.14.06t-6.13-.06l-1,0c-1.62,0-3.22-.07-4.76-.13l-1.57-.08c-1.31-.05-2.62-.11-3.87-.18L224,104c-1.14-.07-2.29-.14-3.37-.23-.59,0-1.12-.1-1.69-.15-1-.09-2.07-.17-3-.27l-1.74-.19c-.89-.1-1.79-.19-2.64-.3l-1.67-.22-2.34-.32-1.62-.25-2-.33c-.54-.09-1-.19-1.55-.29l-1.71-.32-1.51-.34-1.36-.3c-.52-.12-1-.25-1.44-.37l-1.06-.28c-.47-.13-.88-.27-1.3-.4l-.81-.25c-.39-.13-.71-.26-1.05-.39l-.67-.25c-.28-.12-.5-.23-.74-.35l-.58-.28c-.17-.09-.28-.18-.42-.27a5.91,5.91,0,0,1-.49-.33c-.07-.06-.1-.11-.16-.17a1.63,1.63,0,0,1-.33-.39v-6.1A107,107,0,0,0,200.36,93a288.31,288.31,0,0,0,41.06,2.84h3.27c8.35,0,16.44-.36,23.92-.93h.2l1.05-.08Z"/><path class="cls-1" d="M282.64,45.09l1-.13V24.63l-1.27.17c-3.51.48-7.32.89-11.32,1.24l-1,.08V46.48l1.22-.11C275.25,46,279.1,45.59,282.64,45.09Zm-11.53.16V27.16c4-.35,7.81-.76,11.37-1.25V44c-3.54.5-7.35.92-11.37,1.27Z"/><path class="cls-1" d="M282.63,89.54l1-.14V69.07l-1.27.18c-3.52.47-7.33.89-11.32,1.23l-1,.09V89.69l0,1.23,1.22-.11C275.27,90.46,279.11,90,282.63,89.54Zm-11.52.15V71.6c4-.34,7.81-.76,11.37-1.24V88.43c-3.53.49-7.33.91-11.35,1.26Z"/><path class="cls-1" d="M306.35,62.8l-1.64.86-.35.17-.25.12L304,64l-.43.2c-.41.19-.85.37-1.3.55l-.21.09-.25.1c-.63.24-1.29.47-2,.7l-.19,0-.19.06c-.58.18-1.17.36-1.78.53l-.52.14-.22.06-1.59.41-.85.2-1.68.37-.25,0-.57.12-2.08.4-.24,0-.25,0c-.7.13-1.41.25-2.12.36l-.94.16V89l1.31-.23.43-.07.93-.16,1.26-.25.44-.08A76.26,76.26,0,0,0,299.38,86h.12l.17-.06c5.29-1.71,6.31-3,6.62-3.89l.07-.18V62.8Zm-7,22.1h-.16a77,77,0,0,1-8.68,2.18c-.55.11-1.09.22-1.68.32l-1.35.24v-18c.72-.12,1.43-.23,2.13-.36l.5-.09,2.11-.41.82-.17,1.71-.38.85-.2,1.62-.41.75-.21c.63-.17,1.23-.35,1.82-.54l.38-.12c.71-.23,1.38-.46,2-.71l.48-.19c.46-.19.92-.38,1.35-.58l.59-.28.63-.3v17C304.9,82.62,302.87,83.76,299.33,84.9Z"/><path class="cls-1" d="M269.29,49.27l-.55,0h0l-.2,0c-7.58.58-15.6.89-23.84.93h-3.25a290,290,0,0,1-40.86-2.83,105,105,0,0,1-11.63-2.34l-1.41-.38v7.83l.12.25a2.66,2.66,0,0,0,.55.69l.12.14.08.06a7.92,7.92,0,0,0,.84.57,1.83,1.83,0,0,0,.25.15c.22.13.51.26.91.45l.16.07.35.16c.27.12.59.24.91.35l.19.07.22.09.46.17,1.08.33.24.08.29.09.56.17,1.28.34.29.07.34.09.63.16c.48.12,1,.23,1.55.35l.29.06.4.09.68.15,1.84.35.3,0,.45.09.71.13,2.07.33.34.06.49.08.77.12,2.21.3.42,0,.55.08.87.11,2.45.28.44,0,.59.06.92.1,2.47.22.57,0,.67.06,1.07.1c.86.07,1.78.12,2.69.18l.59,0,.72,0,1.11.07c1,.06,2,.11,3,.15l.61,0,.76,0,1.13.06,4.6.13h.53l.67,0c2,0,4,.06,6.15.06s4.16,0,6.16-.06l.66,0h.52L255,61l1-.05.71,0,.49,0,3.24-.16.86,0,.63-.05h.22l3.4-.23.85-.08.59,0,.29,0c1-.08,2.07-.17,3.05-.27l.6-.06.45-.05,3.37-.38.43-.06.33,0c1.13-.15,2.25-.29,3.3-.45l.28,0,.23,0c1.1-.16,2.17-.33,3.17-.51l.29-.05c1.06-.19,2.08-.38,3.14-.6s1.94-.42,2.84-.64c3.13-.75,7.22-2,8.92-3.41l.09-.07v0a2.6,2.6,0,0,0,.62-.78l.13-.24V44.71l-1.42.38a105,105,0,0,1-11.63,2.34l-.16,0-.17,0-.14,0-.32,0-.39.06-1.75.25-.17,0-1.68.22-1.09.14-.45,0c-1.49.18-3,.35-4.58.5l-.4,0-.51.06-2.31.2h-.14l-.25,0-1.25.1Zm2.07.95,2.47-.22.91-.09c1.57-.16,3.11-.33,4.61-.51l1.55-.18,1.85-.25,1.76-.25.84-.12,0,0,.3,0a106.06,106.06,0,0,0,11.76-2.37v6.1a1.94,1.94,0,0,1-.44.51l0,0c-1.13,1-4,2.09-8.45,3.17h0c-.86.21-1.79.41-2.77.62l-.12,0c-.94.19-1.95.38-3,.57l-.28.05c-1,.18-2.06.35-3.15.51l-.51.08c-1,.15-2.15.3-3.27.44l-.76.1c-1.07.14-2.21.26-3.35.38l-1,.11c-1.07.11-2.2.2-3.33.3l-1.43.13c-1.16.09-2.38.16-3.6.24l-1.49.1c-1.2.07-2.46.13-3.71.18l-1.75.08c-1.48.06-3,.1-4.6.13l-1.17,0q-3,.06-6.14.06t-6.13-.06l-1.2,0c-1.55,0-3.09-.07-4.58-.13-.64,0-1.25-.06-1.88-.09-1.2,0-2.41-.1-3.57-.17-.62,0-1.2-.08-1.81-.12l-3.28-.22-1.72-.16-3-.26-1.5-.17-2.88-.32-1.4-.19-2.61-.35-1.26-.2c-.81-.13-1.63-.25-2.39-.39L202.67,57l-2.12-.4-1.07-.24-1.82-.4-1-.25-1.54-.4-.82-.26c-.44-.13-.89-.26-1.28-.4l-.67-.24c-.36-.14-.74-.27-1-.4l-.47-.22c-.29-.14-.6-.28-.84-.41l-.27-.17a4.91,4.91,0,0,1-.63-.43s-.06-.07-.1-.1a1.52,1.52,0,0,1-.38-.45v-6.1a105.4,105.4,0,0,0,11.75,2.37,289.41,289.41,0,0,0,41,2.84h3.27c8.35,0,16.44-.36,23.92-.93h.2l1.05-.09Z"/><path class="cls-1" d="M306.35,18.35l-1.64.87-.35.17-.26.12-.13.06-.42.21c-.42.19-.86.37-1.32.55l-.21.09-.24.1q-.94.36-2,.69l-.17.06-.18.05c-.58.19-1.19.37-1.81.54l-.49.13-.23.06-1.61.42-.83.19-1.7.38-.23.05-.57.12-2.1.4-.23,0-.25.05-2.11.36-1,.15V44.54l1.32-.22.43-.07.91-.16,1.34-.26.43-.09a75.84,75.84,0,0,0,8.61-2.15h.12l.17,0c5.29-1.72,6.31-3,6.62-3.89l.07-.19V18.35Zm-7,22.11h-.16a74.31,74.31,0,0,1-8.62,2.17L288.8,43l-1.33.23v-18l2.12-.36.49-.1,2.12-.4.81-.17c.58-.13,1.16-.25,1.73-.39l.83-.19,1.64-.42.73-.2c.64-.18,1.25-.36,1.85-.55l.36-.11c.71-.23,1.38-.47,2-.72l.47-.18c.47-.19.93-.38,1.36-.58l.58-.28c.21-.1.44-.2.64-.31v17C304.9,38.18,302.87,39.31,299.33,40.46Z"/><path class="cls-1" d="M201.43,32.85c-4.08-.63-7.7-1.34-10.75-2.12a2.7,2.7,0,0,0-.62-.08,2.49,2.49,0,0,0-.61,4.91c3.2.82,7,1.57,11.23,2.21a2.34,2.34,0,0,0,.38,0,2.49,2.49,0,0,0,.37-4.95Zm-.37,3.83a.75.75,0,0,1-.21,0c-4.21-.64-7.95-1.37-11.13-2.18a1.39,1.39,0,0,1-1-1.67,1.39,1.39,0,0,1,1.67-1c3.09.79,6.75,1.51,10.86,2.14a1.37,1.37,0,0,1-.2,2.72Z"/><path class="cls-1" d="M214.91,115.93l2.45.2.8.05,2,.14.83.06,2.06.12.61,0,2.54.13h.06l2.57.11.37,0,1.94.07.68,0,1.57,0,.6,0,1.55,0H236l1.76,0h0l1.56,0H242l-.17-1.12h-1.22l-.94,0h-.39l-1.57,0-1.75,0h-.41l-1.55,0-.59,0-1.57,0h-.16l-.52,0-1.93-.07h-.37l-2.63-.12-2.52-.13-.41,0h-.2l-2.06-.12-.83-.06-2-.14H218l-.57,0-2.44-.2h-.16l-.21,0-3-.26-.11,1.12,3,.26Z"/><path class="cls-1" d="M226.53,79.65c-4.1-.2-8.11-.47-11.92-.8l-.24,0a2.46,2.46,0,0,0-2.46,2.28,2.49,2.49,0,0,0,2.26,2.7q5.81.51,12.25.82a2.49,2.49,0,0,0,.11-5Zm-.06,3.86c-4.22-.2-8.33-.47-12.2-.82A1.36,1.36,0,0,1,213,81.21,1.33,1.33,0,0,1,214.37,80h.15c3.82.34,7.85.61,12,.81a1.37,1.37,0,0,1,0,2.74Z"/><path class="cls-1" d="M186.63,86h.08a89.71,89.71,0,0,0,13.09,3l.35.06,2.95.45.23,0,.17,0c6.56.91,14,1.58,22,2l.89,0c1.47.07,3,.13,4.48.18,1.34,0,2.69.09,4.08.12l1.78,0H237c2,0,4,.06,6.05.06s4.08,0,6.06-.06h.27l1.78,0c1.41,0,2.78-.08,4.14-.12s2.93-.11,4.36-.18l1,0c1.89-.09,3.73-.21,5.55-.33l1.05-.07V70.71l-1.2.08h-.26l-.77,0-2,.12-.3,0-.43,0-5.06.25h-.58l-1.77.07-.71,0-1.48.05-.7,0-1.46,0h-.45l-3.32.06h-2.56v1.13h1.23l1,0h.38l3.34-.07h.45l1.46,0,.7,0,1.49,0,.71,0,1.77-.07.59,0c1.61-.07,3.31-.15,5.07-.25l.73,0,2-.11.86-.06h.18V90.08c-1.82.12-3.65.24-5.53.33l-1,0q-2.14.11-4.35.18l-4.13.11-2,0c-2,0-4,.06-6,.06s-4.06,0-6-.06l-2.05,0-4.06-.11q-2.26-.08-4.47-.18l-.88,0c-8-.4-15.43-1.07-21.91-2l-.39-.06c-1-.14-2-.29-2.93-.44l-.46-.07a89.12,89.12,0,0,1-12.93-3,.34.34,0,0,0-.14,0h-.16c-3.45-1.12-5.43-2.21-5.76-3.1V64.66l.63.3.59.28c.43.2.89.39,1.36.58l.47.19c.64.25,1.32.49,2,.72l.34.1c.61.19,1.22.38,1.86.56l.74.19c.53.15,1.08.29,1.64.42l.83.2,1.73.38.8.17,2.15.41.46.09c.9.16,1.82.32,2.76.46l.44.07,2.35.35.83.11,2,.27.91.11,2.06.23.82.1,2.56.26.3,0,2.93.27.49,0,2.33.18.87.06,2,.14.84,0,2,.13.69,0,2.51.13h.06l2.54.12.52,0,1.82.07.68,0,1.57.06.6,0,1.55,0H236l1.76,0h0l1.56,0h.39l.95,0H242l-.16-1.13h-2.56l-1.57,0-1.75,0h-.41l-1.55,0-.59,0-1.58-.05-.67,0-1.81-.07h-.52l-2.6-.12L223.77,71l-.46,0-.24,0-2-.12-.84,0-2-.14-.26,0-.61,0-2.31-.18-.24,0-.25,0-2.93-.26-.14,0h-.15l-2.55-.26-.55-.06-.27,0L206,69.5l-.9-.11-2-.26-.21,0-.62-.08-2.33-.35-.21,0-.23,0c-.92-.14-1.84-.3-2.74-.46l-.23,0-.21,0-2.14-.41-.56-.12-.23,0-1.7-.38-.83-.19c-.55-.13-1.08-.27-1.61-.41l-.22-.06-.5-.14q-.94-.26-1.83-.54l-.17-.05-.16,0c-.69-.23-1.35-.46-2-.7l-.24-.1-.21-.08c-.46-.19-.9-.37-1.32-.56l-.42-.2L182,64l-.25-.12-.35-.17-1.64-.86V82l.07.19c.3.82,1.3,2.11,6.59,3.81Z"/><path class="cls-1" d="M265.87,115.2l-.84.06-2,.12h-.23l-.41,0c-1.78.1-3.5.18-5.12.25h-.44l-1.88.07-.56,0h-.15l-1.48,0-.7,0-1.6,0h-.31l-3.32.07h-.39l-.95,0h-1.22v1.12l-.18-1.12h-2v1.12h4.78l3.34-.07h.45l1.46,0,.7,0,1.49,0,.71,0,1.88-.07.44,0c1.63-.07,3.36-.15,5.14-.25l.65,0,2-.12.84-.06h.19v18.18c-6.86.47-14.53.76-23.08.76a290.54,290.54,0,0,1-38.79-2.33V121.1a2.49,2.49,0,1,0-5,0v11.07q-4-.66-7.11-1.38V125a2.49,2.49,0,1,0-5,0v4.51c-3.8-1.18-6-2.34-6.31-3.28V109.06c.2.11.42.2.63.3l.59.29c.43.19.89.39,1.37.58l.45.18q1,.38,2,.72l.32.1c.61.19,1.24.38,1.89.56l.71.19,1.66.43.82.19,1.76.39.77.16c.72.15,1.46.29,2.2.42l.41.08,2.78.47.38.06,2.4.35.83.11c.68.1,1.37.19,2.06.27l.87.11,2.12.24.76.09,2.67.27.19,0-.08-1.14-2.66-.27-.49,0-.27,0L206,113.9l-.86-.1-2.05-.27-.26,0-.57-.08-2.38-.35-.17,0-.21,0c-.93-.15-1.85-.3-2.75-.47l-.2,0-.21,0-2.18-.42-.52-.11-.24,0-1.73-.38-.81-.2c-.56-.13-1.1-.27-1.64-.41l-.21-.06-.49-.13c-.64-.18-1.25-.36-1.85-.55l-.16,0-.15,0c-.69-.22-1.35-.46-2-.7l-.23-.09-.2-.09c-.46-.18-.91-.36-1.33-.56l-.43-.2-.13-.07-.25-.12-.35-.16-1.64-.87v19.19l.07.19c.32.87,1.39,2.21,7,4l1.46.45v-6a1.37,1.37,0,0,1,2.74,0v6.72l.87.2c2.15.49,4.56,1,7.17,1.4l1.31.22V121.1a1.37,1.37,0,1,1,2.74,0v12.8l1,.14a292.16,292.16,0,0,0,38.94,2.33c8,0,15.76-.25,23.15-.76l1.05-.07V116.31l-.18-1.19Z"/><path class="cls-1" d="M284.73,110.55l.08,0,.82-.13.49-.08.66-.11,1.74-.29,1-.18.55-.11.57-.1,1.67-.33.88-.2.49-.11.49-.11,1.45-.33.82-.22.43-.12.45-.12c.4-.11.8-.21,1.15-.32s.55-.17.81-.25l.36-.12.4-.13c.29-.09.59-.18.85-.28s.48-.18.7-.27l.29-.12.31-.12.67-.27c.23-.1.42-.2.61-.3l.21-.11.22-.11.5-.26a4.9,4.9,0,0,0,.51-.36l.12-.09.12-.09a2.44,2.44,0,0,0,.85-.86,1.89,1.89,0,0,0,.31-.5l.07-.19v-.18l0-.9-.61-.16a14,14,0,0,0-4.7-2.55l-.65-.24-.51.47c-.08.07-.18.13-.27.2s-.22.15-.41.3c-7.69,5.86-34.1,8.1-54.38,8.23h-3.62c-20.27-.13-46.68-2.37-54.47-8.3-.09-.08-.2-.15-.31-.23s-.19-.13-.27-.2l-.51-.47-.65.24c-3.56,1.35-4.71,2.5-5.07,3.07l-.32.49.23.54c1.7,4.17,23.61,9,56,9.66q3.48.06,7.16.06c2.45,0,4.84,0,7.15-.06l1.91-.06,1.07,0,1.09,0,2.67-.07,1.56-.08.95,0,1,0c1,0,1.93-.08,2.86-.14l1.7-.11.93-.07.7,0,1.89-.13.17,0h0c5.78-.45,11.17-1,16-1.78Zm-.1-1.13h0c-4.88.74-10.32,1.35-16.17,1.8l-.07,0-2.53.17c-.88.06-1.72.13-2.63.18-1.22.07-2.52.12-3.8.18-.84,0-1.64.09-2.5.12-1.21,0-2.49.08-3.75.11l-3,.08c-2.31,0-4.68.07-7.13.07s-4.83,0-7.14-.07c-34.57-.65-53.78-6-55-9,.17-.26,1-1.3,4.53-2.63.18.17.44.33.65.49l.11.08c8.38,6.39,36.73,8.34,55,8.46h3.64c18.32-.12,46.67-2.07,55.05-8.46l.1-.08a7.07,7.07,0,0,0,.66-.49c3.74,1.42,4.46,2.49,4.55,2.51h0a1.7,1.7,0,0,1-.21.28,2,2,0,0,1-.27.37c-.11.1-.29.2-.43.31s-.31.25-.53.38-.45.23-.67.34-.46.26-.76.39-.62.25-.94.37l-.95.38c-.36.13-.8.26-1.21.39l-1.14.37-1.58.42-1.23.33c-.6.15-1.27.3-1.92.44-.45.1-.87.21-1.35.31-.69.15-1.47.29-2.22.43l-1.49.29-2.39.39-1.3.21Z"/><path class="cls-1" d="M243.05.2c-2.74,0-67.15.16-67.15,14.05v23.1c0,3,3,5.36,7.77,7.21v6.88c-3.76,1.4-7.77,3.6-7.77,7.25v23.1c0,3,3,5.36,7.77,7.22v6.83c-3.75,1.4-7.77,3.6-7.77,7.25v23.1c0,13.89,64.41,14.05,67.15,14.05,1.11,0,12.36,0,25.34-1a1.89,1.89,0,0,0,.23.05h.19c5.34-.41,10.32-1,14.89-1.61l.21,0-.37-1.08c-4.61.66-9.57,1.19-14.85,1.6l-.1,0h-.28c-12.93,1-24,1-25.26,1-26.54,0-66-3.44-66-12.92v-23.1c0-2.4,2.3-4.42,7-6.2l.73-.27V88.24l-.72-.28c-4.68-1.83-7-3.91-7-6.17V58.69c0-2.4,2.3-4.43,7-6.2l.73-.27V43.79l-.72-.27c-4.68-1.83-7-3.91-7-6.17V14.25c0-9.48,39.49-12.92,66-12.92s66,3.44,66,12.92v23.1c0,2.26-2.38,4.34-7.06,6.17l-.71.27v8.43l.73.27c4.73,1.77,7,3.8,7,6.2v23.1c0,2.26-2.38,4.34-7.06,6.17l-.71.28v8.38l.73.27c4.73,1.78,7,3.81,7,6.2v23.1c0,2.46-3.1,7-23.88,10.13l-.17,0-.7.1-.59.08.16,1.11,1.44-.2,0,0c13.41-2,24.81-5.4,24.81-11.24v-23.1c0-3.65-4-5.85-7.77-7.25V89c4.75-1.86,7.77-4.22,7.77-7.22V58.69c0-3.65-4-5.85-7.77-7.25V44.56c4.75-1.85,7.77-4.21,7.77-7.21V14.25C310.21.36,245.8.2,243.05.2Z"/><path class="cls-1" d="M271,114.88l-1,.09v20.35l1.22-.1c4-.36,7.89-.78,11.43-1.28l1-.13V113.47l-1.27.18C278.8,114.13,275,114.54,271,114.88Zm11.47,18c-3.54.49-7.35.92-11.37,1.27V116c4-.34,7.82-.76,11.37-1.24Z"/><path class="cls-1" d="M186.63,41.58h.08a88.72,88.72,0,0,0,13,3l.19,0,.29,0c1,.15,1.93.3,2.93.44l.24,0,.2,0c6.56.91,13.95,1.58,22,2l.89,0,4.48.19,4.08.11,1.78,0H237c2,0,4,.06,6.05.06s4.08,0,6.06-.06h.27l1.78,0c1.41,0,2.78-.07,4.14-.12s2.93-.1,4.36-.17l1,0c1.89-.1,3.73-.21,5.55-.33l1.05-.08V27.46l-.18-1.18-1.2.08-.84.05-2,.12-.21,0-.43,0-2.44.13.06,1.12,2.44-.13.65,0,2-.12.84-.05.19,0V45.64c-1.82.12-3.65.23-5.53.33l-1,.05-4.35.17c-1.35.05-2.72.09-4.13.12l-2,0c-2,0-4,0-6,0s-4.06,0-6,0l-2.05,0c-1.38,0-2.73-.07-4.06-.12q-2.26-.07-4.47-.18l-.88,0c-8-.4-15.4-1.07-21.88-2l-.43-.06c-1-.14-2-.29-2.91-.44l-.48-.08a86.39,86.39,0,0,1-12.92-3h-.3c-3.45-1.12-5.43-2.22-5.76-3.1V20.21c.2.11.42.21.63.31l.59.28c.43.2.89.39,1.36.58l.47.19c.64.24,1.32.48,2,.71l.34.11c.61.19,1.23.37,1.87.55l.72.2,1.65.42.83.19c.57.14,1.15.26,1.74.39l.79.17,2.15.41.46.08c.9.17,1.82.32,2.76.47l.44.07,2.35.34.83.12,2.05.26.89.11c.69.09,1.39.17,2.09.24l.8.09,2.56.26.3,0,2.94.26.46,0,2.38.19.8.06,2,.14.88.05,2,.12.72,0,2.49.13h.07l2.54.11.49,0,1.84.08.73,0,1.46.05.72,0,1.45,0,.46,0,1.76,0h0l1.56,0h5l-.16-1.12H242v1.12l-.14-1.12h-2.56l-1.57,0-1.75,0h-.46l-1.44,0-.72,0-1.46,0h-.22l-.51,0-1.83-.07h-.49l-2.61-.12-2.48-.13-.42,0-.29,0-2-.12-.87-.06-2-.13-.24,0-.56,0L215.07,26h-.2l-.26,0c-1-.08-2-.16-2.92-.26l-.3,0c-.85-.08-1.7-.16-2.55-.26l-.54-.05-.26,0L206,25.06l-.89-.11-2-.27-.26,0-.57-.08-2.33-.34-.21,0-.23,0-2.74-.46-.24-.05-.2,0c-.73-.13-1.44-.26-2.14-.41l-.57-.12-.21,0-1.72-.38-.82-.19-1.62-.42L189,22l-.48-.13c-.63-.17-1.24-.36-1.83-.54l-.18-.06-.15-.05q-1-.33-2-.69l-.24-.1-.21-.09c-.46-.18-.9-.36-1.32-.55l-.56-.27-.25-.12-.35-.17-1.64-.86V37.55l.07.19c.3.82,1.3,2.1,6.59,3.81Z"/><path class="cls-1" d="M235.89,68.8q3.48.08,7.16.07c2.45,0,4.84,0,7.15-.07l1.88,0,1.07,0,1.09,0c.92,0,1.83,0,2.7-.08l1.47-.07.92,0,.88,0c1,0,2.07-.09,3.06-.15l1.14-.08.9-.06,3.17-.22.17,0h0c5.79-.44,11.17-1,16-1.78h.15l.43-.07.33,0,.26-.05c.92-.14,1.85-.29,2.7-.44l.74-.14.49-.1.39-.07c.73-.14,1.46-.27,2.13-.41l.75-.17.46-.11.42-.09,1.67-.39.68-.18.4-.11.39-.1c.48-.13,1-.25,1.39-.38l.52-.17.31-.1.27-.08c.46-.14.91-.29,1.31-.43l.49-.19.26-.1.26-.11c.34-.12.68-.25,1-.38l.45-.23.19-.1.21-.1c.25-.12.49-.24.69-.36a3.82,3.82,0,0,0,.42-.29l.11-.09.14-.09a4.08,4.08,0,0,0,.47-.36,2.72,2.72,0,0,0,.44-.55,1.73,1.73,0,0,0,.32-.51l.07-.19v-.19l0-.9-.61-.16A14,14,0,0,0,301.05,55l-.65-.25-.51.47-.27.21-.32.23c-7.61,5.89-34.09,8.14-54.46,8.27h-3.58c-21.18-.14-48.31-2.5-55-8.71l-.51-.47-.65.25c-3.58,1.35-4.73,2.51-5.1,3.07l-.32.5.23.54C181.57,63.32,203.48,68.19,235.89,68.8ZM185.46,56.09c7.41,6.83,37,8.88,55.79,9h3.61C263.2,65,291.68,63,300,56.58h0c.21-.17.48-.32.66-.49,3.76,1.42,4.49,2.49,4.58,2.52h0a1.5,1.5,0,0,1-.23.3,1.9,1.9,0,0,1-.25.35c-.13.11-.33.24-.5.36s-.27.21-.46.33-.54.28-.82.42-.37.2-.6.3-.77.31-1.18.47c-.24.09-.45.19-.71.28-.47.17-1,.33-1.55.5l-.81.26c-.53.16-1.15.32-1.75.48-.36.09-.68.19-1.06.28-.64.16-1.36.32-2.06.47l-1.2.28-2.5.48c-.41.08-.79.16-1.22.23-.92.17-1.93.33-2.93.49l-.76.12h0c-4.88.74-10.32,1.34-16.17,1.8h-.07l-3.23.22-1.93.14-3.92.19-2.38.11c-1.22.05-2.52.07-3.78.11l-2.94.08c-2.31,0-4.68.07-7.13.07s-4.83,0-7.14-.07c-34.57-.65-53.78-6-55-9C181.07,58.47,181.92,57.42,185.46,56.09Z"/><path class="cls-1" d="M226.53,35.2c-4.1-.19-8.11-.46-11.92-.8h-.24a2.46,2.46,0,0,0-2.46,2.27,2.49,2.49,0,0,0,2.26,2.71q5.81.51,12.25.81a2.49,2.49,0,0,0,.11-5Zm-.06,3.86c-4.23-.2-8.33-.47-12.2-.81A1.37,1.37,0,0,1,213,36.76a1.34,1.34,0,0,1,1.34-1.25h.15c3.82.34,7.85.61,12,.8a1.37,1.37,0,0,1,1.3,1.44A1.35,1.35,0,0,1,226.47,39.06Z"/><path class="cls-1" d="M201.43,77.29c-4.08-.62-7.7-1.33-10.75-2.11a2.25,2.25,0,0,0-.62-.08,2.49,2.49,0,0,0-.61,4.91c3.2.82,7,1.56,11.23,2.21a2.34,2.34,0,0,0,.38,0,2.5,2.5,0,0,0,.37-5Zm-.37,3.83h-.21c-4.21-.64-7.95-1.38-11.13-2.19a1.37,1.37,0,0,1,.34-2.7,1.4,1.4,0,0,1,.34,0c3.1.79,6.75,1.5,10.86,2.13a1.37,1.37,0,0,1,.89.54,1.34,1.34,0,0,1,.25,1A1.37,1.37,0,0,1,201.06,81.12Z"/><path class="cls-1" d="M242.66,72.73h1.59l-.18-1.12h-2v1.12h.63Z"/><path class="cls-1" d="M404.81,99.93H367.74a1.34,1.34,0,1,0,0,2.67h37.07a1.34,1.34,0,0,0,0-2.67Z"/><path class="cls-1" d="M404.81,114H367.74a1.33,1.33,0,1,0,0,2.66h37.07a1.33,1.33,0,0,0,0-2.66Z"/><path class="cls-1" d="M366.4,32.52V44a1.34,1.34,0,0,0,1.34,1.33h44.57A1.34,1.34,0,0,0,413.65,44V32.52a1.34,1.34,0,0,0-1.34-1.34H367.74A1.34,1.34,0,0,0,366.4,32.52Zm2.67,1.34H411v8.82H369.07Z"/><path class="cls-1" d="M404.81,85.85H367.74a1.34,1.34,0,1,0,0,2.67h37.07a1.34,1.34,0,0,0,0-2.67Z"/><path class="cls-1" d="M404.81,71.77H367.74a1.34,1.34,0,1,0,0,2.67h37.07a1.34,1.34,0,0,0,0-2.67Z"/><path class="cls-1" d="M462.36,13.14h-9.11V2.43a1.33,1.33,0,0,0-1.34-1.33H378.2c-.07,0-.18,0-.37.06a1.27,1.27,0,0,0-.35.17L353.71,17.48a1.44,1.44,0,0,0-.43.55,1.39,1.39,0,0,0-.15.53V129.44a1.33,1.33,0,0,0,1.33,1.33h9.12v10.72a1.34,1.34,0,0,0,1.33,1.33h97.45a1.34,1.34,0,1,0,0-2.67H366.25v-9.38h85.66a1.33,1.33,0,0,0,1.34-1.33V117.22a1.29,1.29,0,0,0-.4-.94l-18.4-18.41a1.36,1.36,0,0,0-.95-.37,1.33,1.33,0,0,0-.94.37l-11.71,11.71L415.15,59l36.48,4.11h.06l.23,0,.45-.09a2.08,2.08,0,0,0,.28-.17.55.55,0,0,1,.14-.08l0,0a4.26,4.26,0,0,0,.31-.43,1.24,1.24,0,0,0,.12-.53v-46H461v33a1.34,1.34,0,0,0,2.68,0V14.47A1.34,1.34,0,0,0,462.36,13.14ZM376.9,5v12.3H358.81Zm73.67,55.36-36.94-4.16a1.32,1.32,0,0,0-.94.4,1.29,1.29,0,0,0-.38,1.09l6.19,55a1.34,1.34,0,0,0,.89,1.11,1.32,1.32,0,0,0,.44.08,1.36,1.36,0,0,0,.95-.39L433.5,100.7l17.07,17.07V128.1H355.8V19.92h22.43a1.34,1.34,0,0,0,1.34-1.34V3.77h71Z"/><path class="cls-1" d="M367.74,60.37h30.5a1.34,1.34,0,0,0,0-2.67h-30.5a1.34,1.34,0,1,0,0,2.67Z"/><path class="cls-1" d="M404.81,112.91H367.74a2.43,2.43,0,1,0,0,4.86h37.07a2.43,2.43,0,1,0,0-4.86Zm0,2.67H367.74a.24.24,0,0,1,0-.48h37.07a.24.24,0,1,1,0,.48Z"/><path class="cls-1" d="M404.81,98.83H367.74a2.44,2.44,0,1,0,0,4.87h37.07a2.44,2.44,0,0,0,0-4.87Zm0,2.67H367.74a.23.23,0,0,1-.24-.24.24.24,0,0,1,.24-.24h37.07a.24.24,0,0,1,.24.24A.24.24,0,0,1,404.81,101.5Z"/><path class="cls-1" d="M375.8,18.34H378V2.88l-3.42,2.33-13.43,9.13-5.9,4H375.8ZM375.8,7v9.13H362.37Z"/><path class="cls-1" d="M380.67,2.67h-2.2V18.58a.24.24,0,0,1-.24.24H354.7V129.2h97V117.32l-.64-.64-16-16-1.55-1.55L432,100.7l-11.95,12a.22.22,0,0,1-.17.07h-.08a.24.24,0,0,1-.16-.2l-6.19-55a.23.23,0,0,1,.07-.19.23.23,0,0,1,.18-.07h0l35.57,4,2.44.27V2.67h-71Zm68.81,11.8V59.08l-35.57-4h-.28a2.43,2.43,0,0,0-2.41,2.7l6.19,55a2.42,2.42,0,0,0,2.42,2.15,2.4,2.4,0,0,0,1.72-.71l11.95-12,16,16V127H356.89V21h21.34a2.43,2.43,0,0,0,2.44-2.43V4.86h68.81Z"/><path class="cls-1" d="M404.81,84.75H367.74a2.44,2.44,0,1,0,0,4.87h37.07a2.44,2.44,0,0,0,0-4.87Zm0,2.68H367.74a.24.24,0,0,1-.24-.24.23.23,0,0,1,.24-.24h37.07a.24.24,0,0,1,.24.24A.24.24,0,0,1,404.81,87.43Z"/><path class="cls-1" d="M365.3,32.52V44a2.43,2.43,0,0,0,2.44,2.43h44.57A2.43,2.43,0,0,0,414.74,44V32.52a2.43,2.43,0,0,0-2.43-2.43H367.74A2.43,2.43,0,0,0,365.3,32.52Zm47.25,0V44a.24.24,0,0,1-.24.24H367.74a.24.24,0,0,1-.24-.24V32.52a.24.24,0,0,1,.24-.24h44.57A.24.24,0,0,1,412.55,32.52Z"/><path class="cls-1" d="M462.36,12h-8V2.43A2.43,2.43,0,0,0,451.91,0H378.18a2.15,2.15,0,0,0-.5.07l-.18,0a2.43,2.43,0,0,0-.63.3L353.1,16.57a2.37,2.37,0,0,0-.7.78,2.12,2.12,0,0,0-.11.21,2.35,2.35,0,0,0-.25,1s0,0,0,0V129.44a2.43,2.43,0,0,0,2.43,2.43h8v9.61a2.43,2.43,0,0,0,2.43,2.44h97.45a2.44,2.44,0,0,0,0-4.87h-95v-7.18h84.57a2.43,2.43,0,0,0,2.43-2.43V117.22a2.45,2.45,0,0,0-.71-1.72L435.22,97.09a2.52,2.52,0,0,0-3.44,0l-10.1,10.1-5.29-46.94,35.25,4h0l.11,0h0a.7.7,0,0,0,.14,0,3,3,0,0,0,.41-.08,2.84,2.84,0,0,0,.42-.09,2.13,2.13,0,0,0,.53-.3c.08-.06.18-.08.26-.15s0,0,0,0A2.56,2.56,0,0,0,454,63a1.37,1.37,0,0,0,.13-.2,2.41,2.41,0,0,0,.21-1V16.91h5.59V48.79a2.43,2.43,0,0,0,4.86,0V14.47A2.43,2.43,0,0,0,462.36,12ZM378.17,2.21h0ZM462.6,48.79a.24.24,0,0,1-.48,0V14.71h-10v2.2l0,44.92,0,.06,0,0L452,62l0,0h-.06l-.12,0h-.15l-35-3.94-2.73-.31.31,2.73,5.28,46.95L420,112l3.22-3.22,10.1-10.1a.33.33,0,0,1,.17,0,.3.3,0,0,1,.17,0l18.41,18.41a.26.26,0,0,1,.07.17v12.22a.24.24,0,0,1-.24.24H365.15v11.56h97.21a.24.24,0,0,1,.24.24.24.24,0,0,1-.24.24H364.91a.24.24,0,0,1-.24-.24v-11.8H354.46a.24.24,0,0,1-.24-.24V18.6l.1-.22L378.14,2.22h0l.09,0h73.68a.24.24,0,0,1,.24.24V14.24h10.21a.23.23,0,0,1,.24.23Z"/><path class="cls-1" d="M409.88,43.78h2.19v-11H368v11h41.9ZM370.17,35h39.71v6.63H370.17Z"/><path class="cls-1" d="M404.81,70.68H367.74a2.43,2.43,0,1,0,0,4.86h37.07a2.43,2.43,0,1,0,0-4.86Zm0,2.67H367.74a.24.24,0,0,1,0-.48h37.07a.24.24,0,1,1,0,.48Z"/><path class="cls-1" d="M367.74,61.46h30.5a2.43,2.43,0,1,0,0-4.86h-30.5a2.43,2.43,0,1,0,0,4.86Zm0-2.67h30.5a.24.24,0,0,1,0,.48h-30.5a.24.24,0,1,1,0-.48Z"/><path class="cls-1" d="M462.36,12h-8V2.43A2.43,2.43,0,0,0,451.91,0H378.18a2.15,2.15,0,0,0-.5.07l-.18,0a2.43,2.43,0,0,0-.63.3L353.1,16.57a2.37,2.37,0,0,0-.7.78,2.12,2.12,0,0,0-.11.21,2.35,2.35,0,0,0-.25,1s0,0,0,0V129.44a2.43,2.43,0,0,0,2.43,2.43h8v9.61a2.43,2.43,0,0,0,2.43,2.44h97.45a2.44,2.44,0,0,0,0-4.87h-95v-7.18h84.57a2.43,2.43,0,0,0,2.43-2.43V117.22a2.45,2.45,0,0,0-.71-1.72L435.22,97.09a2.52,2.52,0,0,0-3.44,0l-10.1,10.1-5.29-46.94,35.25,4h0l.11,0h0a.7.7,0,0,0,.14,0,3,3,0,0,0,.41-.08,2.84,2.84,0,0,0,.42-.09,2.13,2.13,0,0,0,.53-.3c.08-.06.18-.08.26-.15s0,0,0,0A2.56,2.56,0,0,0,454,63a1.37,1.37,0,0,0,.13-.2,2.41,2.41,0,0,0,.21-1V16.91h5.59V48.79a2.43,2.43,0,0,0,4.86,0V14.47A2.43,2.43,0,0,0,462.36,12Zm1.34,36.75a1.34,1.34,0,0,1-2.68,0v-33h-7.77v46a1.41,1.41,0,0,1-.06.41l-.11.15,0,.07a1.36,1.36,0,0,1-.22.33l-.1.05-.08,0a1.11,1.11,0,0,1-.36.19l-.14,0h0l-.19,0h-.3l-35.12-4L415.15,59l.15,1.37,5.29,46.95.26,2.26,1.61-1.61,10.1-10.1a1.33,1.33,0,0,1,.94-.37,1.36,1.36,0,0,1,.95.37l18.4,18.4a1.32,1.32,0,0,1,.4,1v12.22a1.34,1.34,0,0,1-1.34,1.34H366.25v9.37h96.11a1.34,1.34,0,1,1,0,2.67H364.91a1.34,1.34,0,0,1-1.33-1.34v-10.7h-9.12a1.34,1.34,0,0,1-1.33-1.34V18.78h0v-.2a1.49,1.49,0,0,1,.21-.66,1.16,1.16,0,0,1,.37-.43L377.48,1.33a1.31,1.31,0,0,1,.28-.15l.13,0h0l.28,0h73.7a1.33,1.33,0,0,1,1.34,1.33V13.14h9.11a1.34,1.34,0,0,1,1.34,1.33Z"/><path class="cls-1" d="M409.88,42.68H411V33.85H369.07v8.83h40.81ZM370.17,35h39.71v6.63H370.17Z"/><path class="cls-1" d="M404.81,98.83H367.74a2.44,2.44,0,1,0,0,4.87h37.07a2.44,2.44,0,0,0,0-4.87Zm0,3.77H367.74a1.34,1.34,0,1,1,0-2.67h37.07a1.34,1.34,0,0,1,0,2.67Z"/><path class="cls-1" d="M404.81,112.91H367.74a2.43,2.43,0,1,0,0,4.86h37.07a2.43,2.43,0,1,0,0-4.86Zm0,3.77H367.74a1.34,1.34,0,1,1,0-2.67h37.07a1.34,1.34,0,0,1,0,2.67Z"/><path class="cls-1" d="M375.8,17.25h1.1V5l-1.71,1.17-13.44,9.12-2.94,2h17ZM375.8,7v9.13H362.37Z"/><path class="cls-1" d="M367.74,61.46h30.5a2.43,2.43,0,1,0,0-4.86h-30.5a2.43,2.43,0,1,0,0,4.86Zm0-3.76h30.5a1.34,1.34,0,0,1,0,2.67h-30.5a1.34,1.34,0,1,1,0-2.67Z"/><path class="cls-1" d="M404.81,84.75H367.74a2.44,2.44,0,1,0,0,4.87h37.07a2.44,2.44,0,0,0,0-4.87Zm0,3.77H367.74a1.34,1.34,0,1,1,0-2.67h37.07a1.34,1.34,0,0,1,0,2.67Z"/><path class="cls-1" d="M365.3,32.52V44a2.43,2.43,0,0,0,2.44,2.43h44.57A2.43,2.43,0,0,0,414.74,44V32.52a2.43,2.43,0,0,0-2.43-2.43H367.74A2.43,2.43,0,0,0,365.3,32.52Zm48.35,0V44a1.34,1.34,0,0,1-1.34,1.33H367.74A1.34,1.34,0,0,1,366.4,44V32.52a1.34,1.34,0,0,1,1.34-1.34h44.57A1.34,1.34,0,0,1,413.65,32.52Z"/><path class="cls-1" d="M380.67,3.77h-1.1V18.58a1.34,1.34,0,0,1-1.34,1.34H355.8V128.1h94.77V117.77l-.32-.32-16-16-.78-.77-.77.77-12,12a1.3,1.3,0,0,1-1.38.31,1.34,1.34,0,0,1-.89-1.11l-6.19-55a1.32,1.32,0,0,1,.38-1.1,1.35,1.35,0,0,1,.94-.39h.16l35.57,4,1.21.13V3.77h-69.9Zm68.81,10.7V59.08l-35.57-4h-.28a2.43,2.43,0,0,0-2.41,2.7l6.19,55a2.42,2.42,0,0,0,2.42,2.15,2.4,2.4,0,0,0,1.72-.71l11.95-12,16,16V127H356.89V21h21.34a2.43,2.43,0,0,0,2.44-2.43V4.86h68.81Z"/><path class="cls-1" d="M404.81,70.68H367.74a2.43,2.43,0,1,0,0,4.86h37.07a2.43,2.43,0,1,0,0-4.86Zm0,3.76H367.74a1.34,1.34,0,1,1,0-2.67h37.07a1.34,1.34,0,0,1,0,2.67Z"/><path class="cls-1" d="M456.85,77.35l12.73-12.72a1.35,1.35,0,0,0,.31-1.39,1.32,1.32,0,0,0-1.11-.88l-55.15-6.21a1.32,1.32,0,0,0-.94.4,1.29,1.29,0,0,0-.38,1.09l6.19,55a1.34,1.34,0,0,0,.89,1.11,1.32,1.32,0,0,0,.44.08,1.36,1.36,0,0,0,.95-.39L433.5,100.7l25.8,25.8a1.34,1.34,0,0,0,1.89,0L482.65,105a1.34,1.34,0,0,0,0-1.89Zm3.4,46.31-25.8-25.79a1.31,1.31,0,0,0-.95-.39,1.29,1.29,0,0,0-.94.39l-11.71,11.71L415.15,59l50.58,5.7L454,76.41a1.34,1.34,0,0,0,0,1.89l25.8,25.8Z"/><path class="cls-1" d="M458.4,77.35l12-11.95a2.42,2.42,0,0,0-1.45-4.13l-55-6.2h-.28l0,2.19,55,6.19a.25.25,0,0,1,.2.16.23.23,0,0,1-.06.25L456.85,75.8l-1.55,1.55,1.55,1.55,25,25a.23.23,0,0,1,0,.34l-21.46,21.45a.2.2,0,0,1-.16.07.21.21,0,0,1-.17-.07l-25-25-1.55-1.55L432,100.7l-11.95,12a.22.22,0,0,1-.17.07h-.08a.24.24,0,0,1-.16-.2l-6.19-55a.2.2,0,0,1,.07-.19.22.22,0,0,1,.16-.07V55.06a2.43,2.43,0,0,0-2.41,2.7l6.19,55a2.42,2.42,0,0,0,2.42,2.15,2.4,2.4,0,0,0,1.72-.71l11.95-12,25,25a2.4,2.4,0,0,0,3.43,0l21.46-21.45a2.43,2.43,0,0,0,0-3.44Z"/><path class="cls-1" d="M419.5,107.44,420,112l3.22-3.22,10.1-10.1a.23.23,0,0,1,.17-.07.21.21,0,0,1,.17.07l25,25,1.55,1.55,1.54-1.55,18-18,1.55-1.55-1.55-1.55-25-25a.21.21,0,0,1-.07-.17.23.23,0,0,1,.07-.17l10.1-10.1,3.22-3.21-4.52-.51-46.95-5.29-2.73-.31.31,2.73Zm43.84-41.91-10.1,10.11a2.43,2.43,0,0,0,0,3.43l25,25-18,18-25-25a2.44,2.44,0,0,0-3.44,0l-10.1,10.1-5.29-46.94Z"/><path class="cls-1" d="M454,78.3a1.34,1.34,0,0,1-.39-1,1.3,1.3,0,0,1,.4-.94l10.1-10.1,1.61-1.61-2.27-.25-46.94-5.29L415.15,59l.15,1.37,5.29,46.95.26,2.26,1.61-1.61,10.1-10.1a1.29,1.29,0,0,1,.94-.39,1.31,1.31,0,0,1,.95.39l25,25,.78.78.77-.78,18-18,.77-.77-.77-.78Zm6.24,43.82-25-25a2.44,2.44,0,0,0-3.44,0l-10.1,10.1-5.29-46.94,46.95,5.28-10.1,10.11a2.43,2.43,0,0,0,0,3.43l25,25Z"/><path class="cls-1" d="M458.4,77.35l12-11.95a2.42,2.42,0,0,0-1.45-4.13l-55-6.2h-.28a2.43,2.43,0,0,0-2.41,2.7l6.19,55a2.42,2.42,0,0,0,2.42,2.15,2.4,2.4,0,0,0,1.72-.71l11.95-12,25,25a2.4,2.4,0,0,0,3.43,0l21.46-21.45a2.43,2.43,0,0,0,0-3.44ZM482.65,105,461.19,126.5a1.34,1.34,0,0,1-1.89,0l-25-25-.78-.77-.77.77-12,12a1.3,1.3,0,0,1-1.38.31,1.34,1.34,0,0,1-.89-1.11l-6.19-55a1.32,1.32,0,0,1,.38-1.1,1.35,1.35,0,0,1,.94-.39h.16l55,6.2a1.32,1.32,0,0,1,1.11.88,1.35,1.35,0,0,1-.31,1.39l-12,12-.77.77.77.78,25,25A1.34,1.34,0,0,1,482.65,105Z"/></g></g></svg>